<?xml version="1.0" standalone="no"?>
<!DOCTYPE svg PUBLIC "-//W3C//DTD SVG 1.1//EN" "http://www.w3.org/Graphics/SVG/1.1/DTD/svg11.dtd" >
<svg xmlns="http://www.w3.org/2000/svg">
<metadata>Generated by IcoMoon</metadata>
<defs>
<font id="menu" horiz-adv-x="1024">
<font-face units-per-em="1024" ascent="960" descent="-64" />
<missing-glyph horiz-adv-x="1024" />
<glyph unicode="&#x20;" horiz-adv-x="512" d="" />
<glyph unicode="&#xe100;" glyph-name="c00" d="M31.616 760.637c0-33.505 27.167-60.672 60.672-60.672s60.672 27.167 60.672 60.672-27.167 60.672-60.672 60.672-60.672-27.162-60.672-60.672zM23.936 459.965c0-33.541 27.192-60.739 60.739-60.739 33.541 0 60.733 27.197 60.733 60.739 0 33.546-27.192 60.739-60.733 60.739-33.546 0-60.739-27.192-60.739-60.739zM23.936 157.757c0-33.541 27.192-60.733 60.739-60.733 33.541 0 60.733 27.197 60.733 60.733s-27.192 60.733-60.733 60.733c-33.546 0.005-60.739-27.192-60.739-60.733zM995.389 763.453c0-32-23.741-57.856-53.12-57.856h-629.76c-29.379 0-53.187 25.923-53.187 57.856v0c0 31.939 23.747 57.856 53.187 57.856h629.699c29.44 0.005 53.181-25.917 53.181-57.856v0zM995.389 462.72c0-31.933-23.741-57.856-53.12-57.856h-629.76c-29.379 0-53.187 25.923-53.187 57.856v0c0 32 23.747 57.856 53.187 57.856h629.699c29.44 0.061 53.181-25.856 53.181-57.856v0zM995.389 160.707c0-32-23.741-57.923-53.12-57.923h-629.76c-29.379 0-53.187 25.923-53.187 57.923v0c0 31.872 23.747 57.789 53.187 57.789h629.699c29.44 0 53.181-25.923 53.181-57.789v0z" />
<glyph unicode="&#xe101;" glyph-name="c01" horiz-adv-x="1038" d="M848.326 636.773h-194.899c-11.137 0-20.167-9.026-20.167-20.163 0-11.142 9.031-20.167 20.167-20.167h194.898c11.136 0 20.167 9.026 20.167 20.167 0.001 11.137-9.031 20.163-20.166 20.163zM848.326 509.072h-194.899c-11.137 0-20.167-9.020-20.167-20.156 0-11.143 9.031-20.168 20.167-20.168h194.898c11.136 0 20.167 9.026 20.167 20.168 0.001 11.136-9.031 20.156-20.166 20.156zM992.853 256.259l-32.428 7.194c-2.336 7.128-5.275 14.191-8.894 21.478l17.558 29.237c7.419 11.883 11.751 30.087-0.511 42.359l-18.966 18.933c-5.434 5.468-12.837 8.341-21.435 8.341-7.747 0-15.743-2.462-21.795-6.668l-28.453-18.128c-6.958 3.515-14.098 6.507-21.252 8.943l-7.249 32.68c-2.622 14.515-15.222 29.533-31.804 29.533h-26.79c-16.242 0-26.912-14.854-30.275-29.505l-8.137-32.466c-7.824-2.605-15.501-5.841-22.931-9.641l-29.044 18.501c-6.201 4.289-14.207 6.751-21.939 6.751-8.439 0-16.056-2.956-21.435-8.33l-18.955-18.939c-12.245-12.256-7.93-30.476-0.537-42.303l18.571-30.958c-3.372-7.009-6.053-13.528-8.137-19.812l-32.252-7.171c-14.52-2.61-29.533-15.228-29.533-31.787v-26.801c0-16.232 14.843-26.907 29.51-30.268l32.916-8.209c2.062-6.048 4.541-12.035 7.524-18.197l-18.562-30.937c-8.017-12.793-10.962-30.844 0.499-42.332l18.955-18.944c5.38-5.391 12.996-8.356 21.452-8.356 7.759 0 15.753 2.457 21.802 6.668l29.248 18.66c7.571-3.893 15.315-7.156 23.084-9.722l8.106-32.307c3.372-14.723 14.047-29.584 30.267-29.584v-0.005h26.82c16.558 0 29.159 15.020 31.748 29.403l7.287 32.922c7.062 2.385 14.114 5.347 20.99 8.799l28.393-18.088c6.167-4.294 14.164-6.751 21.911-6.751 8.45 0 16.062 2.967 21.429 8.351l18.971 18.956c11.476 11.488 8.533 29.533 0.537 42.272l-17.627 29.346c3.245 6.53 6.026 13.186 8.307 19.839l32.861 8.202c14.722 3.373 29.588 14.054 29.588 30.286v26.801c-0.001 16.558-15.036 29.17-29.392 31.757zM993.643 198.74c-1.015-0.894-3.701-2.617-7.853-3.581l-46.312-11.548c-1.19-0.306-2.134-1.189-2.517-2.357l-3.69-11.264c-2.122-6.438-4.841-12.967-8.126-19.416l-5.406-10.566c-0.548-1.102-0.517-2.408 0.13-3.466l24.984-41.629c2.073-3.301 2.726-6.351 2.808-7.688l-17.947-17.978c-0.192-0.088-0.823-0.204-1.53-0.204-1.891 0-4.206 0.687-5.648 1.668-0.028 0.027-41.444 26.456-41.444 26.456-0.575 0.367-1.243 0.566-1.919 0.566-0.559 0-1.113-0.137-1.634-0.405l-10.977-5.698c-6.668-3.466-13.533-6.343-20.414-8.564l-11.695-3.79c-1.208-0.394-2.111-1.398-2.386-2.632l-10.583-47.863c-0.521-2.956-3.108-5.736-3.634-6.020h-25.778c-0.904 1.013-2.609 3.712-3.569 7.868l-11.48 45.923c-0.291 1.205-1.201 2.166-2.39 2.534l-11.433 3.618c-7.381 2.347-14.837 5.483-22.131 9.326l-11 5.807c-0.526 0.274-1.102 0.411-1.666 0.411-0.685 0-1.355-0.192-1.936-0.56 0 0-42.265-26.956-42.292-26.976-1.431-0.986-3.757-1.668-5.641-1.668-0.462 0-0.894 0.049-1.092 0.049-0.115 0-0.159-0.010-0.126-0.049l-18.237 18.2c0.094 1.355 0.774 4.475 3.032 8.088l25.651 42.714c0.63 1.049 0.696 2.341 0.115 3.439l-5.237 10.505c-3.032 6.13-5.472 12.003-7.43 17.963l-3.662 11.295c-0.389 1.168-1.337 2.057-2.534 2.359l-46.81 11.673c-3.779 0.872-6.377 2.566-7.36 3.449l-0.055 25.405c0.313 0.904 3.098 3.493 6.038 4.036 0.055 0.010 0.96 0.185 0.998 0.196l46.482 10.292c1.262 0.275 2.259 1.201 2.638 2.424l3.701 11.805c1.93 6.092 4.557 12.453 7.994 19.422l5.226 10.511c0.537 1.092 0.515 2.385-0.132 3.433l-25.869 43.104c-2.073 3.3-2.731 6.36-2.798 7.676l17.914 17.992c0.109 0.044 0.63 0.181 1.536 0.181 1.93 0 4.244-0.669 5.647-1.634 0.011-0.028 42.227-26.923 42.227-26.923 0.592-0.374 1.262-0.555 1.921-0.555 0.575 0 1.156 0.132 1.666 0.405l11.011 5.796c7.287 3.828 14.7 6.943 22.066 9.262l11.366 3.647c1.185 0.372 2.089 1.332 2.38 2.533l11.63 46.455c0.849 3.777 2.572 6.4 3.437 7.386l25.415 0.049c0.888-0.34 3.477-3.109 4.003-6.054 0.011-0.049 0.181-0.953 0.192-1.002l10.402-46.779c0.273-1.238 1.179-2.236 2.385-2.632l11.673-3.761c6.86-2.215 13.818-5.143 20.7-8.697l10.972-5.697c0.515-0.269 1.075-0.4 1.639-0.4 0.668 0 1.337 0.191 1.919 0.559l40.599 25.87c0.027 0.021 0.751 0.515 0.779 0.537 1.413 0.97 3.728 1.639 5.641 1.639 0.51 0 0.906-0.050 1.13-0.050 0.141 0 0.181 0.023 0.115 0.094l18.22-18.216c-0.076-1.349-0.762-4.463-3.032-8.077l-24.727-41.208c-0.63-1.064-0.685-2.375-0.121-3.471l5.396-10.588c3.674-7.177 6.498-13.971 8.647-20.754l3.69-11.854c0.378-1.228 1.393-2.145 2.638-2.43l46.679-10.358c0.131-0.038 0.668-0.109 0.811-0.125 2.955-0.548 5.742-3.143 6.015-3.675v-25.762zM454.974 400.333c50.167 30.162 83.803 85.121 83.803 147.79 0 95.026-77.314 172.335-172.35 172.335-95.026 0-172.329-77.309-172.329-172.335 0-62.759 33.729-117.785 84.009-147.919-97.699-36.047-167.557-130.103-167.557-240.17 0-11.143 9.030-20.163 20.161-20.163s20.161 9.020 20.161 20.163c0 118.86 96.692 215.564 215.554 215.564 68.53 0 131.45-31.496 172.612-86.421 6.695-8.916 19.334-10.709 28.223-4.036 8.911 6.683 10.726 19.317 4.041 28.228-30.343 40.479-70.652 70.225-116.328 86.965zM234.428 548.123c0 72.791 59.214 132.011 131.999 132.011 72.801 0 132.026-59.219 132.026-132.011 0-72.785-59.225-132.004-132.026-132.004-72.787 0-131.999 59.221-131.999 132.004zM804.393 301.667c-49.366 0-89.537-40.127-89.537-89.438 0-49.295 40.172-89.404 89.537-89.404 49.398 0 89.591 40.11 89.591 89.404 0 49.311-40.193 89.438-89.591 89.438zM804.617 150.914c-33.804 0-61.303 27.401-61.303 61.084 0 33.667 27.499 61.073 61.303 61.073 33.776 0 61.249-27.406 61.249-61.073 0-33.683-27.473-61.084-61.249-61.084zM535.006 65.306h-355.909c-61.707 0-112.194 50.488-112.194 112.194v544.883c0 61.707 50.488 112.194 112.194 112.194h596.774c61.707 0 112.194-50.488 112.194-112.194v-202.752c0-16.79 13.738-30.528 30.528-30.528h4.943c16.79 0 30.528 13.738 30.528 30.528v225.008c0 83.996-68.724 152.721-152.721 152.721h-647.719c-83.996 0-152.721-68.724-152.721-152.721v-589.395c0-83.996 68.724-152.721 152.721-152.721h381.382c17.265 0 31.391 14.126 31.391 31.391v0c0 17.266-14.127 31.392-31.391 31.392z" />
<glyph unicode="&#xe102;" glyph-name="c02" d="M46.545 960c-25.693 0-46.545-20.852-46.545-46.545v-372.364c0-25.693 20.852-46.545 46.545-46.545h372.364c25.693 0 46.545 20.852 46.545 46.545v372.364c0 25.693-20.852 46.545-46.545 46.545h-372.364zM605.091 960c-25.693 0-46.545-20.852-46.545-46.545v-372.364c0-25.693 20.852-46.545 46.545-46.545h372.364c25.693 0 46.545 20.852 46.545 46.545v372.364c0 25.693-20.852 46.545-46.545 46.545h-372.364zM651.636 866.909h279.273v-279.273h-279.273v279.273zM605.091 401.455c-25.693 0-46.545-20.852-46.545-46.545v-372.364c0-25.693 20.852-46.545 46.545-46.545h372.364c25.693 0 46.545 20.852 46.545 46.545v372.364c0 25.693-20.852 46.545-46.545 46.545h-372.364zM651.636 308.364h279.273v-279.273h-279.273v279.273zM46.545 401.455c-25.693 0-46.545-20.852-46.545-46.545v-372.364c0-25.693 20.852-46.545 46.545-46.545h372.364c25.693 0 46.545 20.852 46.545 46.545v372.364c0 25.693-20.852 46.545-46.545 46.545h-372.364zM93.091 308.364h279.273v-279.273h-279.273v279.273z" />
<glyph unicode="&#xe103;" glyph-name="c03" d="M941.905 342.778h-54.161c-8.875-31.973-21.562-62.183-37.663-90.231l50.122-50.122c32.087-32.087 32.087-84.143 0-116.174l-29.015-29.072c-32.087-32.030-84.143-32.030-116.174 0l-50.463 50.463c-27.934-15.873-58.087-28.332-89.833-36.98v-52.568c0-45.4-36.809-82.095-82.152-82.095h-41.076c-45.343 0-82.095 36.752-82.095 82.095v52.568c-31.803 8.648-61.899 21.107-89.946 36.98l-50.406-50.463c-32.087-32.030-84.086-32.030-116.174 0l-29.072 29.072c-32.087 32.030-32.087 84.086 0 116.174l50.122 50.122c-16.157 28.048-28.787 58.257-37.606 90.231h-54.161c-45.4 0-82.152 36.752-82.152 82.152v40.962c0 45.4 36.752 82.209 82.152 82.209h53.535c8.534 31.632 20.652 61.671 36.354 89.548l-48.188 48.188c-32.087 32.087-32.087 84.086 0 116.174l29.072 29.015c32.030 32.087 84.086 32.087 116.174 0l47.22-47.277c28.844 16.84 60.078 29.925 93.075 38.971v55.185c0 45.343 36.752 82.095 82.095 82.095h41.076c45.343 0 82.152-36.752 82.152-82.095v-55.185c32.94-8.989 64.174-22.131 93.018-38.971l47.277 47.277c32.030 32.087 84.086 32.087 116.174 0l29.015-29.015c32.087-32.087 32.087-84.086 0-116.174l-48.188-48.188c15.702-27.877 27.82-57.973 36.354-89.548h53.535c45.4 0 82.152-36.809 82.152-82.209v-41.019c0-45.343-36.752-82.095-82.152-82.095zM512.028 669.964c-124.764 0-225.861-101.097-225.861-225.861s101.097-225.861 225.861-225.861c124.65 0 225.805 101.097 225.805 225.861s-101.097 225.861-225.805 225.861zM512.028 344.030c-56.721 0-102.69 46.026-102.69 102.69s45.969 102.633 102.69 102.633c56.664 0 102.69-46.026 102.69-102.69s-45.969-102.633-102.69-102.633z" />
<glyph unicode="&#xe104;" glyph-name="c04" horiz-adv-x="1025" d="M513.337 960c36.817 0 66.692-28.452 66.692-63.506v-328.169l444.767-264.664v-113.809l-444.767 142.945v-222.384l90.706-85.983v-88.202l-157.398 49.792-155.065-50.019 0.569 92.812 85.016 78.984 0.683 225.001-444.539-145.619 0.967 116.484 444.995 267.281 0.74 325.552c0 35.053 29.818 63.506 66.635 63.506z" />
<glyph unicode="&#xe105;" glyph-name="c05" d="M51.2 960h43.418l0.768-978.944 834.918-2.253v-42.803h-879.104v1024zM402.842 553.677v-484.198h-219.75v261.581l219.75 222.618zM666.573 509.184v-439.706h-219.802v484.198l131.891-133.53 87.91 89.037zM930.253 745.677v-676.198h-219.802v453.632l219.802 222.566zM210.381 478.362l-41.267 40.602 247.091 249.549 162.202-164.864 274.33 278.682-75.469 76.646 194.099 1.024 1.894-195.84-80.589 82.125-314.214-316.672-159.13 160.256-208.947-211.507z" />
<glyph unicode="&#xe106;" glyph-name="c06" d="M963.825 130.259c0 0-43.49 39.695-162.756 89.028-121.976 50.296-150.889 66.68-150.889 66.68l-1.084 115.411c0 0 45.719 34.455 59.934 143.661 28.552-8.252 38.189 33.31 39.695 59.814 1.687 25.6 16.866 105.532-18.071 98.364 7.168 53.368 12.77 41.321 10.24 66.861-8.674 89.57-70.897 183.115-227.93 189.922-133.542-6.807-220.22-100.412-228.954-190.042-2.53-25.54 2.65-13.493 9.758-66.921-34.876 7.228-19.878-72.764-18.312-98.424 1.626-26.504 11.144-68.186 39.695-59.934 14.095-109.146 59.874-143.962 59.874-143.962l-1.084-115.953c0 0-28.913-17.528-150.95-67.885-119.266-49.152-71.56-42.466-162.756-86.618 3.976-182.995 0-194.259 0-194.259h903.59v194.259z" />
<glyph unicode="&#xe107;" glyph-name="c07" horiz-adv-x="967" d="M474.505 16.27c-109.96 109.884-106.593 291.314 7.346 405.33 114.016 113.863 295.37 117.23 405.33 7.346 109.884-109.884 106.593-291.314-7.423-405.254s-295.446-117.306-405.254-7.423zM827.648 369.413c-80.194 80.194-212.575 77.822-295.753-5.356-83.178-83.101-85.55-215.482-5.356-295.753 80.194-80.117 212.575-77.745 295.676 5.433 83.178 83.178 85.627 215.559 5.433 295.676zM701.389 646.724c7.193 96.875-39.485 153.041-39.485 153.041-51.422 62.211-94.886 94.886-203.239 92.054-108.047-9.106-168.575-105.216-168.575-105.216-102.844-187.705 78.893-326.361 78.893-326.361-393.776-221.604-298.89-423.236-298.89-423.236l313.658-1.224 28.313-65.349-333.554-0.383c-105.216 1.224-74.149 170.947-74.149 170.947 59.763 237.903 276.163 330.034 276.163 330.034-104.068 80.041-84.938 240.275-84.938 240.275 40.632 248.692 267.822 248.692 267.822 248.692 321.616-19.13 298.89-319.244 298.89-319.244-9.565-26.323-57.391-23.874-60.91 5.969zM579.415 235.502h229.562v-76.521h-229.562v76.521z" />
<glyph unicode="&#xe108;" glyph-name="c08" d="M976-64h-928c-26.496 0-48 21.504-48 48v800c0 26.496 21.504 48 48 48h96v-48c0-61.824 50.112-112 112-112s112 50.176 112 112v48h288v-48c0-61.824 50.112-112 112-112s112 50.176 112 112v48h96c26.496 0 48-21.504 48-48v-800c0-26.496-21.504-48-48-48zM928 576h-832v-544h832v544zM352 352c13.248 0 25.28-5.376 33.92-14.080l78.080-78.080 190.080 190.080c8.704 8.704 20.672 14.080 33.92 14.080 26.496 0 48-21.504 48-48 0-13.248-5.376-25.28-14.080-33.92l-224-224c-8.704-8.704-20.672-14.080-33.92-14.080s-25.28 5.376-33.92 14.080l-112 112c-8.704 8.704-14.080 20.672-14.080 33.92 0 26.496 21.504 48 48 48zM768 736c-26.496 0-48 21.504-48 48v128c0 26.496 21.504 48 48 48s48-21.504 48-48v-128c0-26.496-21.504-48-48-48zM256 736c-26.496 0-48 21.504-48 48v128c0 26.496 21.504 48 48 48s48-21.504 48-48v-128c0-26.496-21.504-48-48-48z" />
<glyph unicode="&#xe109;" glyph-name="c09" d="M102.4 846.234v-910.234h819.2v910.234h-119.501l2.458-189.645h-156.006v189.645h-273.050v-189.645h-156.058v189.645h-117.043zM258.458 960h78.029v-151.706h-78.029v151.706zM258.458 770.355h78.029v-75.827h-78.029v75.827zM687.514 770.355h78.029v-75.827h-78.029v75.827zM687.514 960h78.029v-151.706h-78.029v151.706zM219.443 469.35h117.043v-113.818h-117.043v113.818zM375.45 469.35h117.043v-113.818h-117.043v113.818zM531.507 469.35h117.043v-113.818h-117.043v113.818zM687.565 469.35h117.043v-113.818h-117.043v113.818zM687.565 317.645h117.043v-113.818h-117.043v113.818zM687.565 165.939h117.043v-113.818h-117.043v113.818zM531.507 317.645h117.043v-113.818h-117.043v113.818zM531.507 165.939h117.043v-113.818h-117.043v113.818zM375.45 317.645h117.043v-113.818h-117.043v113.818zM375.45 165.939h117.043v-113.818h-117.043v113.818zM219.443 317.645h117.043v-113.818h-117.043v113.818zM219.443 165.939h117.043v-113.818h-117.043v113.818z" />
<glyph unicode="&#xe10a;" glyph-name="c10" d="M766.351 320.91h-344.148c-47.538 0-86.051 38.522-86.051 86.046v344.165c0 47.521 38.513 86.046 86.051 86.046h344.148c47.513 0 86.046-38.525 86.046-86.046v-344.165c0.001-47.526-38.534-86.046-86.046-86.046zM809.377 751.121c0 23.761-19.257 43.021-43.025 43.021h-344.149c-23.79 0-43.047-19.26-43.047-43.021v-344.165c0-23.765 19.257-43.025 43.047-43.025h344.148c23.77 0 43.025 19.26 43.025 43.025v344.165zM207.102 579.040v-344.17c0-23.761 19.257-43.025 43.004-43.025h344.17c23.77 0 43.025 19.265 43.025 43.025v43.021h43.025v-43.021c0-47.517-38.517-86.043-86.051-86.043h-344.169c-47.513 0-86.051 38.525-86.051 86.043v344.17c0 47.521 38.539 86.038 86.051 86.038h43.021v-43.017h-43.021c-23.748 0-43.004-19.265-43.004-43.021z" />
<glyph unicode="&#xe10b;" glyph-name="c11" d="M437.349 87.478v472.015h291.665l132.548-130.487v-341.53h-424.213zM786.713 385.594h-99.819v99.372h-174.678v-347.799h274.505v248.427h-0.007zM387.775 136.745h-75.264v571.877h281.039l61.541-75.347h-267.316v-496.531zM238.042 260.963h-75.264v571.885h281.065l61.541-75.355h-267.342v-496.529z" />
<glyph unicode="&#xe10c;" glyph-name="c12" d="M149.686 504.732v-356.015c0-80.967 65.598-146.545 146.468-146.545h432.651c80.947 0 146.545 65.578 146.545 146.545v356.015h-725.663zM561.402 241.314v-78.646c0-26.918-21.88-48.794-48.834-48.794-27.055 0-48.936 21.876-48.936 48.794v78.646c-21.111 15.248-34.808 39.942-34.808 68.036 0 46.22 37.504 83.743 83.743 83.743 46.139 0 83.639-37.524 83.639-83.743-0.001-28.095-13.774-52.788-34.805-68.036zM517.702 895.395c-163.465 0-296.494-133.029-296.494-296.672l-1.732-489.75 111.64-0.294 1.672 490.044c0 102.017 83.034 184.971 184.915 184.971 101.982 0 185.011-82.953 185.011-184.971l0.532-469.996 111.66-0.254-0.609 470.25c0 163.642-133.029 296.672-296.594 296.672z" />
<glyph unicode="&#xe10d;" glyph-name="c13" d="M592.352 7.552h-179.68c-169.152 0-302.784 0-302.784 85.952v17.696c0 164.416 135.808 298.144 302.784 298.144h179.68c166.976 0 302.816-133.76 302.816-298.144v-17.696c0-85.952-140.32-85.952-302.816-85.952zM493.536 432.096c-132.224 0-239.808 106.016-239.808 236.288s107.584 236.288 239.808 236.288c132.224 0 239.808-105.984 239.808-236.288s-107.584-236.288-239.808-236.288z" />
<glyph unicode="&#xe10e;" glyph-name="c14" d="M731.648 958.976c-4.096 0-384 1.024-384 1.024-67.584 0-128-61.952-128-128l-36.864-1.024c-67.584 0-122.88-61.44-122.88-126.976v-640c0-66.048 60.416-128 128-128h480.256c67.584 0 128 61.952 128 128h31.744c67.584 0 128 61.952 128 128v511.488l-224.256 255.488zM667.648 0h-480.256c-33.792 0-64 31.232-64 64v640c0 47.616 38.912 64 96.256 64v-576c0-66.048 60.416-128 128-128 0 0 347.136 0.512 384.512 0.512-0.512-38.912-25.6-64.512-64.512-64.512zM731.648 287.744h-287.744c-17.92 0-31.744 14.336-31.744 31.744s14.336 31.744 31.744 31.744h287.744c17.92 0 31.744-14.336 31.744-31.744s-14.336-31.744-31.744-31.744zM731.648 447.488h-287.744c-17.92 0-31.744 14.336-31.744 31.744s14.336 31.744 31.744 31.744h287.744c17.92 0 31.744-14.336 31.744-31.744s-14.336-31.744-31.744-31.744zM795.648 704c-34.304 0-64 30.72-64 64 0 0 0 65.024 0 126.976v0l159.744-190.976h-95.744z" />
<glyph unicode="&#xe10f;" glyph-name="c15" d="M884.179 362.75c-27.617 0-46.059 18.442-46.059 46.059v138.225c0 23.007 18.442 46.060 46.059 46.060 23.053 0 46.059-18.443 46.059-46.060v-142.789c0-23.053-18.395-41.495-46.059-41.495v0zM699.94 247.624c-27.617 0-46.059 18.442-46.059 46.060v368.476c0 23.053 18.442 46.059 46.059 46.059 23.007 0 46.060-18.396 46.060-46.059v-368.476c0-27.618-18.443-46.060-46.060-46.060v0zM512.769 155.505c-27.617 0-46.060 18.396-46.060 46.060v552.713c0 23.053 18.443 46.060 46.060 46.060 23.053 0 46.059-18.396 46.059-46.060v-552.713c0-27.664-18.395-46.060-46.059-46.060v0zM325.643 247.624c-27.663 0-46.059 18.442-46.059 46.060v368.476c0 23.053 18.396 46.059 46.059 46.059 23.007 0 48.947-18.396 48.947-46.059v-368.476c0-27.618-21.33-46.060-48.947-46.060v0zM139.821 362.75c-27.617 0-46.059 18.442-46.059 46.059v138.225c0 23.007 18.442 46.060 46.059 46.060 23.053 0 48.994-18.443 48.994-46.060v-142.789c0-23.053-21.33-41.495-48.994-41.495v0z" />
<glyph unicode="&#xe110;" glyph-name="c16" horiz-adv-x="1027" d="M75.424 395.552l48.992-19.68-47.072-37.056-36.16 0.192 34.24 56.544zM674.656 535.968c2.592 13.696 8.192 24.64 15.712 31.104-1.568 0.608-3.36 1.152-5.632 1.152-12.704 0.096-33.792 0.16-49.76 0.16-10.304 0-19.872-1.088-28.64-2.944l35.936-29.472h32.384zM706.272 551.072c-1.824 0-6.144-5.312-8.768-15.104h17.568c-2.656 9.792-6.944 15.104-8.8 15.104zM709.472 276.192c-2.72 0-11.008-11.52-11.008-32.448s8.256-32.448 11.008-32.448c2.72 0 10.976 11.52 10.976 32.448s-8.256 32.448-10.976 32.448zM693.568 292.16c-1.568 0.608-3.36 1.152-5.632 1.184-1.344 0-2.848 0-4.384 0.032l-116.384-76.288c14.368-13.408 39.52-23.136 71.008-23.136 15.968 0 37.056 0.096 49.76 0.16 2.272 0 4.064 0.544 5.632 1.184-10.496 9.056-17.44 26.816-17.44 48.448-0.032 21.632 6.912 39.392 17.44 48.416zM591.52 535.968l-201.984 165.216-76.672 0.064c0 0 65.312-134.272 78.848-165.28h199.808zM1025.92 398.56c-4.064-34.368-86.656-51.808-130.976-51.808h-190.432l-413.632-271.264-76.704-0.064c0 0 109.216 138.464 129.856 166.688 19.072 26.112 49.28 60.416 49.44 104.64h-34.912c-95.392 0-225.664 61.888-301.696 91.168-46.016 17.728-39.104 65.984-0.512 65.984h0.672l-53.888 185.696h59.104c0 0 71.008-93.024 95.424-122.496 32.672-39.456 73.536-60.064 134.368-63.2h501.824c35.424 0 70.4-6.816 102.080-17.088 57.024-19.168 95.776-44.096 117.632-65.76 9.632-9.6 13.024-16.8 12.352-22.496zM417.664 430.656c0 13.312-10.752 24.096-23.968 24.096-13.248 0-24-10.784-24-24.096s10.752-24.096 24-24.096c13.216 0 23.968 10.784 23.968 24.096zM499.2 430.656c0 13.312-10.72 24.128-23.936 24.128-13.28 0-24-10.816-24-24.128s10.72-24.128 24-24.128c13.216 0 23.936 10.816 23.936 24.128zM580.768 430.656c0 13.312-10.752 24.096-23.968 24.096s-23.968-10.784-23.968-24.096c0-13.312 10.752-24.096 23.968-24.096 13.248 0 23.968 10.784 23.968 24.096zM662.336 430.656c0 13.312-10.72 24.128-23.968 24.128s-23.968-10.816-23.968-24.128c0-13.312 10.72-24.128 23.968-24.128 13.216 0 23.968 10.816 23.968 24.128zM743.872 430.656c0 13.312-10.72 24.128-23.968 24.128s-23.968-10.816-23.968-24.128c0-13.312 10.72-24.128 23.968-24.128s23.968 10.816 23.968 24.128zM963.328 428.096c-11.456 7.104-25.6 14.624-42.912 21.984-9.984-4.704-25.312-7.744-44.544-7.744-24.96 0-26.816-36.96 2.624-37.824 34.368-1.056 70.912 10.4 84.832 23.584z" />
<glyph unicode="&#xe111;" glyph-name="c17" d="M793.7 607.3c-20.1-0.5-36.6-3.8-57.3-13.6-70.1-37.1-132.9-65.3-136.8-67-1.2-0.6-2.6-0.9-4-0.8-85.4 10.6-170.8 21.6-256.2 31.9-13.1 2.1-23.6-7-31-12.8-8.4-6.1-16.5-12.8-24.7-19.1-12.9-9.2-5.2-20.8 2.4-23.9l136-68.6c9.2-5.5 3.6-13.4 0-16l-72.4-34.3c-2-0.8-4.3-0.8-6.4 0-29.7 14-68.6 23.9-93.1 32.7-14.2 5.1-28.9 0.6-37.4-8.8-4.3-4.8-7.1-10.8-8-17.6-0.7-5.6 1.7-13.3 6.4-17.6l81.9-75.8c9.4-8.6 21.6-7.6 31-7.2 20.5 0.9 32.9 1.6 52.9 3.2 10.4 0.9 22.1 4 33 9.6 151.1 79.5 433.6 236.1 433.6 236.1 21.8 13.5 25.6 31.7 15.9 43.1-10.9 13.3-35 26.6-65.8 26.5v0 0 0zM512 960c-282.8 0-512-229.2-512-512s229.2-512 512-512c282.8 0 512 229.2 512 512s-229.2 512-512 512zM512-41.2c-270.2 0-489.2 219-489.2 489.2s219 489.2 489.2 489.2c270.2 0 489.2-219 489.2-489.2s-219-489.2-489.2-489.2z" />
<glyph unicode="&#xe112;" glyph-name="c18" d="M67.56 356.073l882.756 520.016-118.704-690.908-345.366 77.771 261.455 372.483-356.111-352.017zM475.502 209.741l15.861-185.967 96.702 161.408z" />
<glyph unicode="&#xe113;" glyph-name="c19" d="M716.8 554.359c-27.341-27.324-71.646-27.324-98.97 0s-27.324 71.646 0 98.97l64.922 64.922c-10.667 1.741-21.948 2.816-34.219 2.816-89.549 0-170.667-55.518-170.667-145.067 0-23.962 5.342-46.643 14.677-67.123l-199.475-183.279c-26.658-26.658-26.658-69.888 0-96.546s69.888-26.658 96.546 0l176.026 193.092c2.15 2.15 4.13 4.574 6.127 6.929 20.753-9.66 43.827-15.206 68.233-15.206 89.549 0 145.067 81.118 145.067 170.667 0 12.612-1.178 24.166-3.021 35.072l-65.246-65.246zM349.867 260.267c-14.131 0-25.6 11.469-25.6 25.6s11.469 25.6 25.6 25.6 25.6-11.469 25.6-25.6c0-14.131-11.469-25.6-25.6-25.6zM512 874.667c-235.639 0-426.667-191.027-426.667-426.667s191.027-426.667 426.667-426.667 426.667 191.027 426.667 426.667c0 235.639-191.027 426.667-426.667 426.667zM512 55.467c-216.798 0-392.533 175.735-392.533 392.533s175.735 392.533 392.533 392.533 392.533-175.735 392.533-392.533-175.735-392.533-392.533-392.533z" />
<glyph unicode="&#xe114;" glyph-name="c20" d="M885.766 817.084h64.465v-881.084h-64.465v881.084zM188.929 2.062h761.301v-66.062h-761.301v66.062zM466.744 769.501h228.698v-78.28h-228.698v78.28zM466.744 560.757h228.698v-85.954h-228.698v85.954zM477.487 350.991h217.953v-76.745h-217.953v76.745zM198.139 560.757h205.674v-286.511h-205.674v286.511zM738.418 947.544h-449.159l-226.151-231.267v-640.543h748.983v871.81h-73.674zM309.726 870.019v-166.021h-166.546l166.546 166.021zM738.418 153.459h-601.631v478.907h241.5v240.477h360.131v-719.384z" />
<glyph unicode="&#xe115;" glyph-name="c21" d="M613.119 154.621l50.906-21.377 53.957 128.489-50.906 21.378c-51.639 21.684-51.409 56.676 0.309 77.837l51.188 20.909-52.728 128.995-51.135-20.89c-51.809-21.165-76.479 3.744-54.715 55.264 0.062 0.147 0.020 0.252 0.064 0.36l21.255 50.614-128.436 53.934-21.454-51.091c-21.754-51.395-56.671-51.197-77.798 0.555l-20.908 51.141-128.976-52.689 20.873-51.17c21.163-51.766-3.733-76.4-55.28-54.753l-50.961 21.4-53.958-128.491 50.962-21.399c51.548-21.646 51.391-56.668-0.398-77.841l-51.134-20.89 52.676-129.015 51.167 20.915c51.723 21.116 76.314-3.675 54.868-55.155l-21.468-51.125 128.437-53.934 21.255 50.615c0.046 0.108 0.167 0.19 0.212 0.297 21.546 51.614 56.587 51.406 77.783-0.331l20.874-51.17 129.030 52.712-20.926 51.148c-21.096 51.781 3.726 76.444 55.364 54.76zM343.981 210.942c-62.088 26.073-91.281 97.567-65.215 159.638 26.065 62.069 97.549 91.287 159.637 65.214 62.069-26.064 91.281-97.567 65.216-159.636-26.066-62.072-97.569-91.282-159.638-65.216zM940.219 628.729h39.053v98.574h-39.053c-39.617 0-49.051 22.883-21.116 50.848l27.656 27.655-69.714 69.686-27.627-27.628c-27.993-27.992-50.903-18.502-50.818 21.058 0 0.113-0.057 0.17-0.057 0.253v38.831h-98.532v-39.196c-0.113-39.476-22.938-48.91-50.889-20.945l-27.642 27.627-69.685-69.685 27.626-27.655c27.978-27.965 18.488-50.848-21.057-50.848h-39.096v-98.574h39.096c39.547 0 49.035-22.882 21.058-50.875l-27.627-27.628 69.687-69.713 27.642 27.653c27.95 27.937 50.775 18.503 50.888-20.944v-39.223h98.534v38.83c0 0.084 0.057 0.17 0.057 0.254-0.085 39.559 22.826 49.020 50.817 21.085l27.628-27.655 69.714 69.713-27.655 27.628c-27.939 27.992-18.504 50.874 21.112 50.874zM749.27 591.753c-47.633 0-86.25 38.632-86.25 86.25s38.618 86.25 86.25 86.25c47.618 0 86.25-38.632 86.25-86.25s-38.633-86.25-86.25-86.25z" />
<glyph unicode="&#xe116;" glyph-name="c22" d="M852.363 770.117c32.266 0 58.053-8.197 77.358-24.594s28.956-41.256 28.956-74.578v-440.331c0-14.282-2.644-27.769-7.933-40.465-5.289-12.692-12.56-23.8-21.818-33.322-9.257-9.518-20.1-17.058-32.527-22.611-12.431-5.554-25.521-8.331-39.273-8.331h-691.836c-13.751 0-26.709 2.644-38.876 7.933-12.166 5.293-22.744 12.3-31.737 21.027-8.99 8.728-16.132 18.909-21.421 30.545-5.289 11.638-7.933 24.065-7.933 37.291v449.851c0 28.562 8.728 51.966 26.184 70.216 17.452 18.247 42.051 27.37 73.783 27.37h687.074zM288.264 623.342c-10.049 0-19.571-1.853-28.562-5.554-8.993-3.704-16.926-8.86-23.8-15.473-6.878-6.61-12.299-14.547-16.264-23.801-3.969-9.257-5.951-19.172-5.951-29.754 0-10.578 1.982-20.361 5.951-29.354 3.965-8.993 9.386-16.926 16.264-23.8 6.874-6.878 14.807-12.299 23.8-16.268 8.993-3.965 18.515-5.946 28.562-5.946 11.107 0 21.289 1.981 30.545 5.946 9.258 3.969 17.191 9.389 23.801 16.268 6.613 6.874 11.902 14.807 15.87 23.8 3.965 8.993 5.951 18.776 5.951 29.354 0 21.688-7.142 39.538-21.424 53.555-14.282 14.015-32.527 21.027-54.743 21.027v0zM412.826 348.826c0 10.052-1.982 19.703-5.951 28.961-3.965 9.257-9.254 17.191-15.867 23.8-6.613 6.613-14.546 11.902-23.8 15.871-9.258 3.964-18.912 5.946-28.96 5.946h-99.172c-20.63 0-38.085-7.271-52.366-21.817-14.278-14.543-21.42-32.131-21.42-52.761v-74.578h247.538v74.578h-0.001zM780.96 270.28c10.578 0 18.382 2.644 23.407 7.937 5.024 5.289 7.536 11.634 7.536 19.040s-2.909 13.884-8.729 19.439c-5.817 5.553-14.017 8.33-24.593 8.33h-236.43c-10.578 0-18.515-2.777-23.804-8.33s-7.934-12.034-7.934-19.439c0-7.407 2.645-13.751 7.934-19.040 5.289-5.293 12.962-7.937 23.009-7.937h239.605zM781.753 372.63c10.578 0 18.247 2.645 23.009 7.934 4.76 5.289 7.138 11.637 7.138 19.040 0 7.933-2.247 14.547-6.746 19.835-4.493 5.289-12.031 7.934-22.608 7.934h-242.776c-10.582 0-18.251-2.645-23.009-7.934-4.76-5.288-7.138-11.902-7.138-19.835 0-7.405 2.247-13.751 6.742-19.040 4.493-5.289 12.034-7.934 22.611-7.934h242.777zM782.549 473.392c7.933 0 14.807 2.644 20.625 7.933s8.729 11.634 8.729 19.040c0 7.405-2.909 13.355-8.729 17.849-5.817 4.497-12.692 6.746-20.625 6.746h-161.062c-7.934 0-14.676-2.248-20.229-6.746-5.553-4.494-8.33-10.445-8.33-17.849 0-7.407 2.777-13.751 8.33-19.040s12.295-7.933 20.229-7.933h161.062z" />
<glyph unicode="&#xe117;" glyph-name="c23" d="M0 0h1024v-64h-1024v64zM0 960h64v-1024h-64v1024zM224 64h64v-64h-64v64zM352 64h64v-64h-64v64zM480 64h64v-64h-64v64zM608 64h64v-64h-64v64zM736 64h64v-64h-64v64zM864 64h64v-64h-64v64zM64.032 192h64v-64h-64v64zM64.032 320h64v-64h-64v64zM64.032 448h64v-64h-64v64zM64.032 576h64v-64h-64v64zM64.032 704h64v-64h-64v64zM64.032 832h64v-64h-64v64zM281.6 236.768l-51.2 38.464 211.968 282.368 163.584-130.72 267.552 267.744 45.28-45.248-308.064-308.256-156.768 125.28zM928.352 416h-64v224h-224v64h288z" />
<glyph unicode="&#xe118;" glyph-name="c24" d="M882.618 629.947l-394.632-226.981 0.728 444.096c-223.251-12.159-400.681-196.503-400.681-422.792 0-234.153 189.818-423.967 423.967-423.967s423.967 189.815 423.967 423.967c0 74.675-19.456 144.741-53.349 205.676zM539.128 895.696l-0.649-395.637 336.264 193.407c-70.194 114.909-193.288 193.556-335.615 202.23z" />
<glyph unicode="&#xe119;" glyph-name="c25" d="M288.003 352c-35.197 0-64-28.803-64-64.004v-64c0-35.202 28.803-64 64-64 35.202 0 64.004 28.798 64.004 64v64c0 35.202-28.803 64.004-64.004 64.004zM576.005 224.001v255.999c0 35.202-28.803 64-64 64-35.202 0-64-28.798-64-64v-255.999c0-35.202 28.798-64.004 64-64.004s64 28.803 64 64.004zM48.005 735.998h80.001v-80.001c0-25.599 22.4-47.999 47.999-47.999 25.604 0 48.003 22.4 48.003 47.999v80.001h80.001c25.599 0 47.999 22.4 47.999 48.003 0 25.599-22.4 47.999-47.999 47.999h-80.001v80.001c0 25.599-22.4 47.999-48.003 47.999-25.599 0.005-47.999-22.395-47.999-47.999v-80.001h-80.001c-25.604 0-48.003-22.4-48.003-47.999 0-25.604 22.4-48.003 48.003-48.003zM800.005 224.001v447.997c0 35.202-28.803 64-64.004 64s-64-28.798-64-64v-447.997c0-35.202 28.798-64.004 64-64.004s64 28.803 64.004 64.004zM848.004 960.001h-383.997c-25.604 0-47.999-22.4-47.999-48.003 0-25.599 22.395-47.999 47.999-47.999h383.997c44.799 0 80.001-35.202 80.001-80.001v-672c0-44.799-35.202-80.001-80.001-80.001h-672c-44.799 0-80.001 35.202-80.001 80.001v383.997c0 25.604-22.4 48.003-47.999 48.003-25.604 0-48.003-22.4-48.003-48.003v-383.997c0-95.997 80.001-175.998 176.003-175.998h672c95.997 0 175.998 80.001 175.998 175.998v672c0 95.997-80.001 175.998-175.998 175.998v0.005z" />
<glyph unicode="&#xe11a;" glyph-name="c26" horiz-adv-x="1025" d="M987.497 191.735c-17.383 17.247-41.634 28.085-68.662 28.085h-90.266c-27.028 0-50.62-10.837-68.657-28.085-17.247-18.107-28.085-41.83-28.085-68.657v-90.271c0-26.958 10.837-51.213 28.085-68.657 18.037-17.247 41.629-28.15 68.657-28.15h90.266c27.028 0 51.279 10.903 68.662 28.15 17.247 17.444 28.216 41.699 28.216 68.657v90.271c0 26.827-10.968 50.549-28.216 68.657zM957.959 32.807c0-10.903-4.493-20.548-11.501-27.556-7.069-7.004-16.649-11.562-27.622-11.562h-90.266c-10.968 0-20.553 4.558-27.622 11.562-7.069 7.008-10.837 16.653-10.837 27.556v90.271c0 10.903 3.768 20.483 10.837 27.556 7.069 7.004 16.653 10.903 27.622 10.903h90.266c10.973 0 20.553-3.899 27.622-10.903 7.008-7.074 11.501-16.653 11.501-27.556v-90.271zM557.44 219.819h-90.402c-26.832 0-51.213-10.837-68.46-28.085-17.906-18.107-28.216-41.83-28.216-68.657v-90.271c0-26.958 10.309-51.213 28.216-68.657 17.247-17.247 41.629-28.15 68.46-28.15h90.402c26.233 0 50.68 10.903 68.657 28.15 17.182 17.444 28.216 41.699 28.216 68.657v90.271c0 26.827-11.034 50.549-28.216 68.657-17.977 17.247-42.424 28.085-68.657 28.085zM595.965 32.807c0-10.903-3.899-20.548-10.903-27.556-7.074-7.004-17.247-11.562-27.622-11.562h-90.402c-10.837 0-20.422 4.558-27.491 11.562-6.938 7.008-11.497 16.653-11.497 27.556v90.271c0 10.903 4.558 20.483 11.497 27.556 7.069 7.004 16.653 10.903 27.491 10.903h90.402c10.375 0 20.548-3.899 27.622-10.903 7.004-7.074 10.903-16.653 10.903-27.556v-90.271zM121.827 281.342c0-8.327 3.17-15.396 8.327-20.487 5.021-5.218 12.090-8.327 20.417-8.327 7.733 0 15.4 3.109 20.487 8.327 5.222 5.091 8.327 12.16 8.327 20.422v151.854h303.844v-151.854c0-8.261 3.104-15.33 8.327-20.422 5.021-5.218 12.82-8.986 20.417-8.986 8.327 0 15.396 3.768 20.487 8.986 5.218 5.091 8.327 12.16 8.327 20.422v151.854h303.844v-151.789c0-8.327 3.104-15.396 8.92-20.487 5.087-5.218 12.090-8.986 20.483-8.986 7.733 0 14.737 3.768 20.487 8.986 5.152 5.091 8.327 12.16 8.327 20.487v180.668c0 7.663-3.175 15.396-8.327 20.417-5.751 5.157-12.754 8.327-20.487 8.327h-332.588v35.486c107.051 13.68 189.855 105.269 189.855 216.023 0 120.202-97.541 217.738-217.743 217.738s-217.738-97.536-217.738-217.738c0-109.893 81.547-200.889 187.41-215.625v-35.883h-332.658c-8.327 0-15.396-3.17-20.417-8.327-5.157-5.021-9.122-12.754-9.122-20.417h0.795v-180.668zM561.798 592.319v0c-5.746 0-11.366 2.38-14.998 6.41-4.89 5.353-20.553 19.496-33.372 19.496-12.754 0-28.613-14.208-33.171-19.164-3.637-3.899-9.187-6.279-14.938-6.279-2.707 0-5.283 0.528-7.597 1.59l-0.397 0.131-38.987 21.806-0.332 0.266c-7.135 4.956-9.776 14.666-6.274 22.596 0 0 3.567 8.261 3.567 15.728 0 22.801-18.505 41.302-41.302 41.302h-1.323c-0.131 0-0.196 0-0.262 0-6.541 0-11.829 5.751-13.549 14.737-0.131 0.729-3.301 17.71-3.301 31.124 0 13.348 3.17 30.399 3.301 31.058 1.721 9.122 7.139 14.938 13.811 14.802h1.323c22.797 0 41.302 18.505 41.302 41.236 0 7.466-3.567 15.728-3.567 15.793-3.572 7.929-0.795 17.645 6.274 22.535l0.397 0.332 41.105 22.53 0.463 0.201c2.31 0.991 4.82 1.454 7.532 1.454 5.681 0 11.235-2.249 14.933-6.148 4.825-5.087 20.221-18.304 32.643-18.304 12.362 0 27.626 12.951 32.447 17.977 3.637 3.764 9.187 6.012 14.802 6.012 2.777 0 5.353-0.528 7.668-1.519l0.463-0.201 39.647-22.002 0.397-0.332c7.139-4.89 9.846-14.606 6.279-22.535 0-0.065-3.567-8.257-3.567-15.793 0-22.731 18.5-41.236 41.302-41.236h1.318c6.676 0.136 12.095-5.681 13.811-14.802 0.136-0.659 3.305-17.71 3.305-31.058 0-13.413-3.17-30.394-3.305-31.124-1.716-9.051-7.135-14.867-13.811-14.737h-1.318c-22.801 0-41.302-18.5-41.302-41.302 0-7.466 3.567-15.658 3.633-15.793 3.502-7.864 0.795-17.574-6.344-22.53l-0.397-0.266-40.376-22.334-0.393-0.136c-2.314-0.991-4.825-1.519-7.537-1.519zM513.558 665.539c-42.288 0-76.652 34.429-76.652 76.722s34.364 76.652 76.652 76.652c42.293 0 76.656-34.359 76.656-76.652s-34.364-76.722-76.656-76.722v0zM195.44 219.817h-90.397c-26.897 0-50.62-10.837-68.526-28.085-17.247-18.107-28.22-41.83-28.22-68.657v-90.271c0-26.958 10.973-51.213 28.22-68.657 17.906-17.247 41.629-28.15 68.526-28.15h90.397c26.832 0 51.213 10.903 68.531 28.15 18.037 17.444 28.216 41.699 28.216 68.657v90.271c0 26.827-10.178 50.549-28.216 68.657-17.317 17.247-41.699 28.085-68.531 28.085zM234.563 32.805c0-10.903-4.558-20.548-11.497-27.556-7.074-7.004-16.789-11.562-27.626-11.562h-90.397c-10.244 0-20.422 4.558-27.491 11.562-7.069 7.008-10.968 16.653-10.968 27.556v90.271c0 10.903 3.899 20.483 10.968 27.556 7.069 7.004 16.653 10.903 27.491 10.903h90.397c10.837 0 20.553-3.899 27.626-10.903 6.938-7.074 11.497-16.653 11.497-27.556v-90.271z" />
<glyph unicode="&#xe11b;" glyph-name="c27" horiz-adv-x="1025" d="M966.747 927.676l-446.855 32.324-513.158-513.158c-9.077-9.077-8.938-23.955 0.333-33.221l470.62-470.62c9.271-9.271 24.242-9.271 33.18-0.328l513.158 513.148-32.324 446.849c-0.851 12.89-12.357 24.103-24.954 25.005zM786.128 587.629c-36.317-36.312-95.824-35.65-132.951 1.476-37.116 37.121-37.788 96.634-1.471 132.946 36.317 36.317 95.824 35.65 132.951-1.476 37.116-37.116 37.788-96.68 1.471-132.946z" />
<glyph unicode="&#xe11c;" glyph-name="c28" d="M315.495 39.37h321.876c41.047-40.93 97.63-66.267 160.126-66.267 124.993 0 226.505 101.513 226.505 226.505 0 94.846-58.090 175.896-140.473 209.696v513.594h-568.034v-189.346h-315.495v-694.183h315.495zM315.495 670.419v-567.974h-252.419v567.974h252.419zM315.495 39.37v0zM592.788 102.446h-214.155v757.316h441.765v-434.69c-7.537 0.753-15.19 1.16-22.9 1.16-125.109 0-226.623-101.513-226.623-226.623 0-34.726 7.883-67.652 21.913-97.162zM674.825 230.569l98.322-84.353 141.689 169.459 33.856-28.294-170.386-203.718-132.123 113.396 28.64 33.51zM632.445 354.864h-1.394v-1.507l1.394 1.507zM567.975 354.864h-126.209v-63.076h126.209v63.076zM567.975 733.552h-126.209v-63.133h126.209v63.133zM757.26 733.552h-126.209v-63.133h126.209v63.133zM757.26 544.211h-126.209v-63.076h126.209v63.076zM567.975 544.211h-126.209v-63.076h126.209v63.076zM252.424 354.865h-126.213v-63.076h126.213v63.076zM252.424 544.211h-126.213v-63.076h126.213v63.076z" />
<glyph unicode="&#xe11d;" glyph-name="c29" d="M965.996 693.963c-0.656 49.008-1.583 174.941-1.583 174.941l-23.152 6.969c-182.661 82.719-426.92 84.126-426.92 84.126s-227.995 0-432.633-84.202l-22.976-7.088c0 0-0.542-112.916-1.060-159.932-2.182-200.351-3.632-332.709 43.713-444.356 47.734-112.626 140.745-197.76 331.802-303.65 31.319-17.38 55.341-24.773 80.328-24.773 24.483 0 49.103 7.435 79.824 24.117 379.897 206.412 378.221 328.693 372.657 733.849zM147.556 691.995c0.423 37.537 0.827 62.562 0.946 104.421 50.568 15.061 196.196 64.858 363.909 69.436 140.299 3.841 246.421-36.011 362.351-69.607 0.233-47.696 0.832-78.492 1.369-118.269 2.572-187.234 4.112-300.232-34.694-389.167-37.656-86.194-114.195-152.231-282.413-243.64-19.349-10.501-33.406-15.194-45.609-15.194-12.317 0-25.966 4.654-45.624 15.541-325.317 180.327-324.234 279.071-320.236 646.479zM377.524 353.57c7.102-9.793 17.452-16.953 29.137-20.161 3.646-0.984 7.411-1.602 11.177-1.811 12.089-0.68 24.16 2.819 34.005 9.845l324.404 227.035c11.628 8.3 19.349 20.623 21.707 34.718 2.372 14.095-0.889 28.267-9.194 39.89-9.479 13.321-24.269 21.469-40.585 22.377-12.089 0.675-24.155-2.819-34.024-9.845l-281.115-196.196-87.644 117.974c-9.479 13.073-24.174 21.084-40.318 21.992-12.241 0.68-24.464-2.914-34.385-10.116-11.566-8.4-19.177-20.794-21.417-34.908s1.141-28.253 9.484-39.738l118.768-161.054z" />
<glyph unicode="&#xe11e;" glyph-name="c30" d="M162.080 576.004h256v-64.001h-256v64.001zM418.080 704.001h-256v-63.996h256v63.996zM484.064 0.002c53.315-39.68 118.656-64.001 190.083-64.001h-640.069v1024h552.003l344.003-344.764v-169.156c-18.179 24.449-39.747 45.956-64.001 64.32v65.603h-320v320h-448.003v-896.003h385.986zM610.079 640.005h204.929l-204.929 205.376v-205.376zM162.079 320.005v-64.001l191.999 0.062c0 21.892 2.239 43.265 6.465 63.939h-198.464zM162.079 128.001h219.776c-9.089 20.351-16.063 41.663-20.675 64.001h-199.101v-64.001zM162.079 448.002v-64.001h219.134c10.111 23.042 23.427 44.163 38.463 64.001h-257.597zM945.376-48.32l-110.337 106.881c-44.097-36.034-99.646-58.558-160.894-58.558-141.185 0-256.067 114.877-256.067 256.062 0 141.123 114.882 255.938 256.067 255.938 141.118 0 255.933-114.815 255.933-255.938 0.005-56.832-19.196-108.863-50.624-151.425l110.465-107.009-44.544-45.951zM674.143 63.999c105.792 0 191.937 86.145 191.937 192.065 0 105.859-86.145 191.937-191.937 191.937-105.859 0-192.065-86.078-192.065-191.937 0-105.921 86.206-192.065 192.065-192.065z" />
<glyph unicode="&#xe11f;" glyph-name="c31" d="M134.597 776.282h125.335v-147.928h-125.335v147.928zM134.597 585.327h323.461v-24.367h-323.461v24.367zM134.597 527.579h323.461v-24.367h-323.461v24.367zM134.597 469.83h323.461v-24.367h-323.461v24.367zM134.597 412.081h323.461v-24.367h-323.461v24.367zM134.597 354.333h323.461v-24.371h-323.461v24.371zM296.296 771.779h161.761v-24.371h-161.761v24.371zM296.296 714.025h161.761v-24.367h-161.761v24.367zM296.296 656.277h161.761v-24.367h-161.761v24.367zM864.97 531.072c0-100.079-81.168-181.247-181.247-181.247-100.075 0-181.243 81.168-181.243 181.247 0 96.46 75.394 175.276 170.391 180.924l10.852 0.319v-181.243h181.247zM719.135 749.568c100.079 0 181.247-81.168 181.247-181.247h-181.247v181.247zM957.242 931.569h-890.482c-36.871 0-66.76-29.889-66.76-66.76v-623.311c0-36.871 29.889-66.823 66.76-66.823h890.482c36.871 0 66.76 29.952 66.76 66.823v623.311c0 36.871-29.889 66.76-66.76 66.76v0zM957.242 263.777c0-12.248-10.026-22.279-22.274-22.279h-845.933c-12.311 0-22.274 10.030-22.274 22.279v578.758c0 12.311 9.963 22.274 22.274 22.274h845.933c12.248 0 22.274-9.963 22.274-22.274v-578.758zM670.397 120.226c0 12.311-8.885 22.274-19.8 22.274h-277.197c-10.915 0-19.8-9.963-19.8-22.274v-89.034h-197.994v-66.76h712.728v66.76h-197.936v89.034z" />
<glyph unicode="&#xe120;" glyph-name="c32" d="M512.004 960c-282.789 0-512.004-229.214-512.004-512.004 0-282.764 229.214-512 512.004-512 282.783 0 511.996 229.234 511.996 512 0 282.789-229.214 512.004-511.996 512.004zM512.004-0.004c-247.429 0-448.004 200.593-448.004 448 0 247.429 200.576 448.004 448.004 448.004 247.422 0 447.997-200.578 447.997-448.004 0.002-247.407-200.576-448-447.997-448zM784.414 447.996h-240.416l0.015 288.468c0 17.421-14.351 31.533-32.011 31.533-17.682 0-32.003-14.092-32.018-31.533l0.015-320.303c0-0.068-0.015-0.097-0.015-0.162 0-0.063 0.015-0.097 0.015-0.16v-0.289c0-7.71 2.93-14.702 7.598-20.19 5.775-6.9 14.306-11.364 23.955-11.364h272.896c17.441 0 31.553 14.322 31.553 32.003 0.013 17.68-14.132 31.998-31.588 31.998z" />
<glyph unicode="&#xe121;" glyph-name="c33" d="M954.88 754.176c34.816-83.968 18.432-183.808-50.176-251.904-75.776-75.264-189.957-86.528-279.040-36.864l-64.512-69.632 46.080-45.563 27.141 27.136c14.336 13.824 36.859 13.824 50.683 0l222.208-222.72c13.824-13.824 13.824-36.357 0-50.176l-101.376-100.864c-13.824-13.824-36.864-13.824-50.688 0l-222.208 222.72c-13.819 13.824-13.819 36.352 0 50.176l25.088 24.576-43.52 43.52-307.2-332.8c-28.16-27.643-73.728-27.643-101.376 0l-25.088 25.088c-28.16 27.643-28.16 72.704 0 100.352l349.184 291.323-232.448 230.912h-73.728l-84.48 135.68 68.096 68.096 139.776-84.992 1.024-71.168 235.008-233.984 68.608 56.832c-67.072 90.112-59.904 217.6 22.528 299.52 68.096 67.584 168.448 84.48 252.928 50.688l-151.040-147.456 127.488-125.952 151.040 147.456zM164.352 102.4c-13.824 13.824-36.864 13.824-50.688 0s-13.824-36.352 0-50.176c13.824-13.824 36.864-13.824 50.688 0s13.824 36.352 0 50.176z" />
<glyph unicode="&#xe122;" glyph-name="c34" d="M969.577 558.135v326.291c0 28.832-23.374 52.203-52.207 52.203h-365.445c-28.832 0-52.205-23.371-52.205-52.203v-326.291c0-28.831 23.373-52.203 52.205-52.203h365.445c28.832-0.002 52.207 23.371 52.207 52.203zM865.165 636.445c0-14.417-11.688-26.103-26.105-26.103h-208.825c-14.415 0-26.103 11.686-26.103 26.103v169.671c0 14.417 11.686 26.103 26.103 26.103h208.825c14.417 0 26.105-11.686 26.105-26.103v-169.671zM446.398 390.073h-365.448c-28.832 0-52.205-23.373-52.205-52.207v-326.288c0-28.832 23.373-52.205 52.205-52.205h365.445c28.832 0 52.203 23.373 52.203 52.205l0.002 326.288c0 28.834-23.373 52.207-52.203 52.207zM394.19 89.886c0-14.417-11.686-26.103-26.103-26.103h-208.825c-14.417 0-26.103 11.686-26.103 26.103v169.671c0 14.415 11.686 26.102 26.103 26.102l208.825 0.002c14.417 0 26.103-11.688 26.103-26.103v-169.671zM142.562 484.842l142.564 166.606h-83.617c0.684 93.925 74.027 169.852 164.433 169.852h38.78v114.57h-38.78c-150.227 0-272.011-126.749-272.011-283.104 0-0.442 0.008-0.881 0.016-1.321l-93.948 0.002 142.562-166.604zM1024 243.796l-142.564 166.603-142.565-166.603h83.62c-0.686-93.926-74.029-169.854-164.435-169.854h-38.778v-114.573h38.78c150.227 0 272.009 126.751 272.009 283.107 0 0.44-0.008 0.879-0.015 1.32h93.948z" />
<glyph unicode="&#xe123;" glyph-name="c35" d="M68.583 497.705l-0.276-461.615 72.622 0.269v461.481l-72.346-0.134zM68.456 565.971l140.739 0.261v-597.889l-209.196-0.774 0.041 68.561 0.276 461.615 0.041 68.099 68.099 0.126zM819.798 73.040c35.339 88.816 85.358 400.982 85.862 404.005 0.873 17.535-1.747 28.754-7.491 38.395-9.238 15.486-25.228 25.126-42.83 25.798l-7.827 0.84-331.154 0.067 33.458 100.069c13.672 40.747 20.559 83.307 20.559 126.371 0 21.263-1.747 43.031-5.308 64.798l-4.065 18.039c-5.24 23.749-25.161 40.31-48.507 40.31-27.479 0-49.817-23.38-49.817-52.067l0.437-7.726c-4.065-157.645-153.551-310.587-249.457-330.070v-465.411l561.631-0.235c6.315 0.47 14.68 3.258 21.734 7.961 7.726 5.173 14.042 12.53 18.173 21.263l4.602 7.592zM834.889-12.616c-16.291-10.86-35.853-17.847-59.63-19.426l-629.869 0.264v589.442l54.676 11.107c78.44 15.935 191.926 153.337 194.89 259.318l-0.545 11.579c0 65.737 52.216 120.334 118.084 120.334 55.86 0 103.126-39.283 115.104-93.57l4.839-22.024c4.129-25.241 6.203-50.692 6.203-75.819 0-50.515-8.105-100.405-24.082-148.018l-14.415-36.579-15.506 26.424 262.887-0.067 7.269-0.39 3.148-0.5c40.869-1.56 77.858-23.846 98.872-59.072 13.471-22.608 18.495-47.264 17.028-76.734l-0.844-7.827c-0.581-3.608-1.673-10.305-3.143-19.172-2.475-14.921-5.256-31.354-8.315-49.012-8.72-50.341-17.944-100.57-27.312-147.589-7.651-38.404-15.088-73.069-22.228-103.165-10.212-43.049-19.618-76.075-28.772-99.083l-5.052-10.151-4.602-7.592c0 0-20.497-30.499-38.684-42.676z" />
<glyph unicode="&#xe124;" glyph-name="c36" d="M531.2 29.44c-6.592 0-13.056 1.984-18.624 5.952l-260.416 186.176h-104.96c-81.152 0-147.2 65.984-147.2 147.136v191.936c0 81.216 66.048 147.2 147.2 147.2h104.96l260.416 186.048c9.728 6.976 22.592 7.936 33.216 2.432 10.688-5.504 17.408-16.448 17.408-28.48v-806.4c0-12.032-6.656-22.976-17.344-28.416-4.608-2.368-9.664-3.584-14.656-3.584zM147.2 643.84c-45.888 0-83.2-37.312-83.2-83.2v-191.936c0-45.824 37.312-83.136 83.2-83.136h115.2c6.656 0 13.184-2.048 18.624-5.952l218.176-155.968v681.984l-218.176-155.84c-5.44-3.84-11.968-5.952-18.624-5.952h-115.2zM723.2 278.976c-9.664 0-19.328 4.416-25.6 12.8-10.56 14.208-7.68 34.24 6.464 44.8 40.704 30.464 64 77.056 64 128 0 50.816-23.296 97.472-64 127.936-14.144 10.624-17.024 30.656-6.464 44.8 10.688 14.080 30.784 16.896 44.8 6.464 56.96-42.688 89.6-107.968 89.6-179.2 0-71.296-32.704-136.64-89.6-179.264-5.76-4.224-12.544-6.336-19.2-6.336zM838.4 125.312c-9.664 0-19.328 4.416-25.6 12.8-10.56 14.144-7.68 34.176 6.464 44.8 89.408 67.136 140.736 169.856 140.736 281.728 0 111.808-51.328 214.464-140.8 281.6-14.208 10.624-17.024 30.656-6.4 44.8s30.72 16.896 44.736 6.4c105.856-79.424 166.464-200.704 166.464-332.8 0-132.16-60.672-253.568-166.464-332.928-5.696-4.352-12.48-6.4-19.136-6.4z" />
<glyph unicode="&#xe125;" glyph-name="c37" d="M861.091 843.636h-698.182c-64.279 0-116.364-52.084-116.364-116.364v-558.545c0-64.279 52.084-116.364 116.364-116.364h698.182c64.279 0 116.364 52.084 116.364 116.364v558.545c0 64.279-52.084 116.364-116.364 116.364zM930.909 168.727c0-38.54-31.279-69.818-69.818-69.818h-698.182c-38.54 0-69.818 31.279-69.818 69.818v558.545c0 38.54 31.279 69.818 69.818 69.818h698.182c38.54 0 69.818-31.279 69.818-69.818v-558.545zM186.182 261.818h256v46.545h-256v-46.545zM186.182 424.727h256v46.545h-256v-46.545zM186.182 587.636h256v46.545h-256v-46.545zM749.475 429.149c25.321 21.364 41.798 52.922 41.798 88.669 0 64.279-52.084 116.364-116.364 116.364s-116.364-52.084-116.364-116.364c0-35.747 16.477-67.305 41.798-88.669-52.271-27.136-88.343-81.129-88.343-144.058 0-12.847 10.426-23.273 23.273-23.273s23.273 10.426 23.273 23.273c0 64.279 52.084 116.364 116.364 116.364s116.364-52.084 116.364-116.364c0-12.847 10.426-23.273 23.273-23.273s23.273 10.426 23.273 23.273c0 62.929-36.073 116.922-88.343 144.058zM674.909 448c-38.54 0-69.818 31.279-69.818 69.818s31.279 69.818 69.818 69.818c38.54 0 69.818-31.279 69.818-69.818s-31.279-69.818-69.818-69.818z" />
<glyph unicode="&#xe126;" glyph-name="c38" d="M890.282 768.116c-28.045 72.396-187.039 127.865-378.978 127.865-191.936 0-350.934-55.47-378.972-127.865h-4.392v-613.331c0-6.63 2.715-16.607 6.064-22.309 0 0 57.829-132.016 377.301-132.016s377.305 132.016 377.305 132.016c3.53 5.607 6.060 15.691 6.060 22.309v613.331h-4.388zM830.776 158.807c0 0-53.243-93.917-319.472-93.917-266.224 0-319.471 93.917-319.471 93.917v102.731c68.679-40.618 186.123-67.391 319.471-67.391s250.792 26.773 319.472 67.391v-102.731zM830.776 344.891c0-49.952-143.030-90.447-319.472-90.447-176.437 0-319.471 40.494-319.471 90.447v107.333c68.679-40.62 186.123-67.399 319.471-67.399s250.792 26.779 319.472 67.399v-107.333zM830.776 602.911v-67.335c0-49.952-143.030-90.45-319.472-90.45-176.437 0-319.471 40.498-319.471 90.45v126.3c68.679-40.621 186.123-67.398 319.471-67.398s250.792 26.777 319.472 67.398v-58.965zM511.304 654.778c-176.437 0-319.471 40.499-319.471 90.45 0 49.957 143.034 90.452 319.471 90.452 176.443 0 319.472-40.495 319.472-90.452 0-49.951-143.030-90.45-319.472-90.45z" />
<glyph unicode="&#xe127;" glyph-name="c39" d="M320 896h-256v-256h256v256zM384 960v0-384h-384v384h384zM128 832h128v-128h-128zM960 896h-256v-256h256v256zM1024 960v0-384h-384v384h384zM768 832h128v-128h-128zM320 256h-256v-256h256v256zM384 320v0-384h-384v384h384zM128 192h128v-128h-128zM448 960h64v-64h-64zM512 896h64v-64h-64zM448 832h64v-64h-64zM512 768h64v-64h-64zM448 704h64v-64h-64zM512 640h64v-64h-64zM448 576h64v-64h-64zM448 448h64v-64h-64zM512 384h64v-64h-64zM448 320h64v-64h-64zM512 256h64v-64h-64zM448 192h64v-64h-64zM512 128h64v-64h-64zM448 64h64v-64h-64zM512 0h64v-64h-64zM960 448h64v-64h-64zM64 448h64v-64h-64zM128 512h64v-64h-64zM0 512h64v-64h-64zM256 512h64v-64h-64zM320 448h64v-64h-64zM384 512h64v-64h-64zM576 448h64v-64h-64zM640 512h64v-64h-64zM704 448h64v-64h-64zM768 512h64v-64h-64zM832 448h64v-64h-64zM896 512h64v-64h-64zM960 320h64v-64h-64zM576 320h64v-64h-64zM640 384h64v-64h-64zM704 320h64v-64h-64zM832 320h64v-64h-64zM896 384h64v-64h-64zM960 192h64v-64h-64zM576 192h64v-64h-64zM640 256h64v-64h-64zM768 256h64v-64h-64zM832 192h64v-64h-64zM896 256h64v-64h-64zM960 64h64v-64h-64zM640 128h64v-64h-64zM704 64h64v-64h-64zM768 128h64v-64h-64zM832 64h64v-64h-64zM640 0h64v-64h-64zM768 0h64v-64h-64zM896 0h64v-64h-64z" />
<glyph unicode="&#xe128;" glyph-name="c40" d="M960 768h-28.384c-16.8 0-32.928-6.624-44.928-18.432l-86.688-85.504v39.936c0 53.024-43.008 96-96 96h-608c-52.928 0-96-43.040-96-96v-512c0-52.992 42.976-96 96-96h608c52.992 0 96 43.008 96 96v39.072l86.688-85.504c12-11.808 28.128-18.432 44.928-18.432h28.384c35.328 0 64 28.64 64 64v512.864c0 35.36-28.672 64-64 64zM96 160c-17.664 0-32 14.368-32 32v512c0 17.696 14.304 32 32 32h608c17.632 0 32-14.336 32-32v-512c0-17.632-14.368-32-32-32h-608zM960 191.136h-32l-128 128v0.864l-32 32v192l160 160h32v-512.864z" />
<glyph unicode="&#xe129;" glyph-name="c42" d="M957.5 101.25h-310c-13.75 0-23.75 10-23.75 23.75v117.5h238.75c13.75 0 23.75 10 23.75 23.75v23.75c0 12.5-11.25 23.75-23.75 23.75h-238.75v46.25h238.75c13.75 0 23.75 10 23.75 23.75v23.75c0 12.5-11.25 23.75-23.75 23.75h-238.75v47.5h238.75c13.75 0 23.75 10 23.75 23.75v23.75c0 12.5-11.25 23.75-23.75 23.75h-238.75v47.5h238.75c13.75 0 23.75 10 23.75 23.75v23.75c0 12.5-11.25 23.75-23.75 23.75h-238.75v117.5c0 12.5 11.25 23.75 23.75 23.75h311.25c13.75 0 23.75-10 23.75-23.75v-658.75c0-15-11.25-26.25-25-26.25zM22.5 788.75l553.75 92.5v-237.5c0-1.25 0-1.25 0-1.25v-23.75c0-1.25 0-1.25 0-1.25v-90c0-1.25 0-1.25 0-1.25v-23.75c0-1.25 0-1.25 0-1.25v-90c0-1.25 0-1.25 0-1.25v-23.75c0 0 0-1.25 0-1.25v-90c0-1.25 0-1.25 0-1.25v-23.75c0-1.25 0-1.25 0-1.25v-251.25l-553.75 76.25v695zM337.5 251.25l15 37.5h75l15-37.5h36.25l-71.25 181.25h-35l-71.25-181.25h36.25zM137.5 520c18.75-18.75 41.25-28.75 68.75-28.75 26.25 0 48.75 8.75 67.5 27.5s27.5 41.25 27.5 67.5c0 26.25-8.75 48.75-27.5 67.5s-41.25 27.5-67.5 27.5c-17.5 0-33.75-3.75-48.75-12.5s-26.25-20-35-35c-8.75-15-12.5-30-12.5-47.5 0-25 10-47.5 27.5-66.25zM206.25 648.75c16.25 0 31.25-6.25 42.5-17.5 11.25-12.5 17.5-26.25 17.5-43.75s-6.25-31.25-17.5-43.75c-11.25-11.25-26.25-17.5-42.5-17.5-15 0-27.5 5-38.75 13.75-15 11.25-22.5 27.5-22.5 47.5 0 17.5 6.25 32.5 17.5 45 12.5 10 26.25 16.25 43.75 16.25zM415 321.25h-48.75l25 62.5 23.75-62.5z" />
<glyph unicode="&#xe12a;" glyph-name="c44" d="M870.263 769.591c-10.738 9.749-24.878 15.084-39.5 15.084-1.333 0-2.667 0-3.999-0.092-0.806-0.091-10.117-0.646-24.669-0.646-24.117 0-71.202 1.656-115.804 12.231-57.591 13.703-124.057 77.159-143.393 89.666-9.748 6.343-20.968 9.471-32.21 9.471-11.196 0-22.416-3.127-32.141-9.38-2.344-1.564-71.938-73.57-140.012-89.757-44.578-10.575-92.56-12.231-116.655-12.231-14.553 0-23.84 0.555-24.759 0.646-1.265 0.092-2.53 0.092-3.817 0.092-14.646 0-28.831-5.333-39.613-15.084-11.702-10.575-18.368-25.38-18.368-40.922v-140.058c0-517.749 350.285-584.422 365.135-587.086 3.404-0.556 6.829-0.83 10.255-0.83 3.402 0 6.874 0.274 10.23 0.83 14.874 2.665 367.733 69.337 367.733 587.086v140.058c0 15.542-6.689 30.346-18.413 40.922zM740.779 569.299l-242.848-234.966c-1.518-2.48-3.38-4.967-5.633-7.081-7.127-6.897-16.553-10.207-25.889-10.023-9.333-0.184-18.738 3.126-25.863 10.023-2.252 2.114-4.137 4.601-5.655 7.081l-129.781 125.621c-13.819 13.336-13.819 34.945 0 48.373 13.817 13.332 36.231 13.332 50.050 0l111.25-107.69 224.343 217.030c13.819 13.336 36.21 13.336 50.027 0 13.817-13.331 13.817-35.036-0.001-48.369z" />
<glyph unicode="&#xe12b;" glyph-name="c45" d="M908 856h-792c-36 0-66-30-66-66v-528c0-36 30-66 66-66h330v-102h-168c-18 0-36-12-36-36v-24h528v24c0 18-12 36-36 36h-156v102h330c36 0 66 30 66 66v528c0 36-30 66-66 66v0 0zM476 244c0 18 12 36 36 36 18 0 36-12 36-36 0-18-12-36-36-36-18 6-36 18-36 36 0 0 0 0 0 0zM98 322c0 24 0 450 0 456 0 18 6 30 30 30s744 0 768 0c24 0 30-12 30-36 0-66 0-402 0-450 0-18-6-24-24-24s-768 0-780 0c-12 0-24 0-24 24z" />
<glyph unicode="&#xe12c;" glyph-name="c46" d="M631.616 155.328h-239.040v-86.72h-227.648v-65.024h694.080v65.024h-227.392zM945.536 892.416h-867.136c-35.904 0-65.024-29.056-65.024-65.024v-606.976c0-53.952 52.352-65.024 94.208-65.024h803.456c70.528 0 99.584 29.12 99.584 65.024v606.976c-0.064 35.968-29.12 65.024-65.088 65.024zM266.752 312.256h-74.112v131.328h74.112v-131.328zM418.176 314.24h-78.848v236.48h78.848v-236.48zM598.976 310.016h-82.24v446.528h82.176v-446.528zM786.752 312.64h-81.6v341.44h81.6v-341.44z" />
<glyph unicode="&#xe12d;" glyph-name="c47" d="M947.648 901.824h-871.296c-40.128 0-72.64-32.512-72.64-72.64v-617.216c0-40.128 32.512-72.64 72.64-72.64h335.168c-57.472-31.68-99.2-72.64-99.2-72.64-30.080 0-54.464-16.256-54.464-36.288s24.384-36.288 54.464-36.288h435.648c30.080 0 54.464 16.256 54.464 36.288s-24.384 36.288-54.464 36.288c0 0-40.576 40.896-96.832 72.64h296.512c40.128 0 72.64 32.512 72.64 72.64v617.216c0 40.128-32.512 72.64-72.64 72.64zM947.648 429.824c0-40.128-32.512-72.64-72.64-72.64h-726.080c-40.128 0-72.64 32.512-72.64 72.64v326.784c0 40.128 32.512 72.64 72.64 72.64h726.144c40.128 0 72.64-32.512 72.64-72.64v-326.784z" />
<glyph unicode="&#xe12e;" glyph-name="c48" d="M191.534 768.466h639.566v-447.696h-639.566v447.696zM866.466 897.26h-710.247c-50.857 0-92.086-41.325-92.086-92.303v-519.316c0-50.978 41.228-92.303 92.086-92.303h223.281v-127.399h-157.419c-17.52 0-31.722-14.202-31.722-31.722s14.202-31.722 31.722-31.722h576.633c17.52 0 31.722 14.202 31.722 31.722s-14.202 31.722-31.722 31.722h-159.294v127.399h227.046c50.857 0 92.086 41.326 92.086 92.303v519.316c0 50.977-41.229 92.303-92.086 92.303zM896.295 256.274h-768.529v575.5h768.529v-575.5z" />
<glyph unicode="&#xe12f;" glyph-name="c49" d="M415.284 163.446l-34.76-105.989c0-7.764 7.679-14.017 17.157-14.017h228.637c9.498 0 17.172 6.253 17.172 14.017l-34.774 105.989h-193.432zM886.367 852.56h-748.754c-34.446 0-62.369-27.923-62.369-62.369v-538.85c0-34.451 27.923-62.374 62.369-62.374h748.754c34.465 0 62.388 27.923 62.388 62.374v538.85c0 34.445-27.923 62.369-62.388 62.369v0zM900.863 249.311h-780.782v562.444h780.782v-562.444zM505.976 511.744c51.018 0 92.559 42.486 92.559 94.725s-41.541 94.73-92.559 94.73c-29.348 0-55.247-14.292-72.233-36.167-0.84-0.446-1.63-0.997-2.299-1.753-0.808-0.927-1.288-1.991-1.597-3.093-10.339-15.281-16.487-33.757-16.487-53.712 0-52.239 41.559-94.73 92.616-94.73v0zM505.976 681.106c14.648 0 28.246-4.566 39.649-12.33-10.852-1.030-23.424-6.147-42.728-16.486-18.511-9.892-38.209-1.958-49.831 4.841 13.255 14.631 31.971 23.975 52.91 23.975v0zM443.654 643.91c9.497-5.735 23.975-12.467 40.271-12.467 8.552 0 17.584 1.854 26.545 6.699 32.96 17.584 40.377 17.1 53.133 11.261 0.566-0.271 1.187-0.309 1.772-0.443 8.153-12.059 13.013-26.687 13.013-42.485 0-41.113-32.494-74.604-72.418-74.604-39.962 0-72.47 33.491-72.47 74.604 0.005 13.701 3.868 26.411 10.154 37.434v0zM692.575 418.911c1.525 0 2.832 1.097 3.088 2.575l13.432 76.59c0.219 1.169-0.309 2.371-1.306 3.093-6.082 4.257-9.688 11.127-9.688 18.51 0 6.766 3.16 13.19 8.624 17.551 0.96 0.789 1.406 1.991 1.112 3.193-0.289 1.169-1.216 2.096-2.418 2.338-12.42 2.608-24.127 8.414-33.834 16.757-0.993 0.827-2.351 0.999-3.52 0.381-22.735-11.849-40.751-31.734-53.114-56.944 23.627-21.498 41.781-50.144 53.251-84.043h24.374zM769.592 559.522c-9.735-8.315-21.428-14.154-33.828-16.762-1.221-0.242-2.129-1.169-2.405-2.371s0.105-2.437 1.084-3.16c5.459-4.395 8.619-10.785 8.619-17.547 0-7.35-3.587-14.22-9.616-18.444-0.965-0.656-1.478-1.89-1.288-3.054l13.327-76.694c0.257-1.478 1.558-2.58 3.088-2.58h93.023c0.879 0 1.669 0.309 2.272 0.93 0.579 0.618 0.907 1.44 0.888 2.3-1.336 63.543-28.127 115.061-71.677 137.762-1.117 0.613-2.508 0.443-3.487-0.381v0zM720.597 560.107c39.859 0 72.266 33.14 72.266 73.943s-32.407 73.981-72.266 73.981c-23.252 0-43.859-11.298-57.1-28.783-0.376-0.271-0.789-0.48-1.112-0.822-0.603-0.722-0.965-1.511-1.221-2.371-8.105-11.949-12.861-26.412-12.861-42.005 0-40.804 32.435-73.943 72.294-73.943v0zM720.597 692.3c11.422 0 22.018-3.535 30.911-9.578-8.447-0.826-18.273-4.813-33.311-12.914-14.462-7.659-29.832-1.516-38.883 3.778 10.339 11.436 24.939 18.714 41.283 18.714v0zM671.964 663.28c7.421-4.466 18.701-9.721 31.41-9.721 6.699 0 13.754 1.411 20.762 5.188 25.709 13.736 31.496 13.394 41.488 8.79 0.412-0.171 0.893-0.204 1.325-0.309 6.372-9.446 10.201-20.849 10.201-33.177 0-32.114-25.381-58.25-56.554-58.25-31.201 0-56.563 26.136-56.563 58.25 0 10.685 3.003 20.61 7.93 29.229v0zM184.309 418.911h92.991c1.511 0 2.851 1.097 3.108 2.575l13.398 76.59c0.238 1.169-0.294 2.371-1.287 3.093-6.082 4.257-9.688 11.127-9.688 18.51 0 6.766 3.16 13.19 8.619 17.551 0.979 0.789 1.378 1.991 1.117 3.193-0.271 1.169-1.216 2.096-2.437 2.338-12.395 2.608-24.107 8.414-33.815 16.757-0.993 0.827-2.371 0.999-3.52 0.381-43.517-22.701-70.323-74.219-71.644-137.762-0.018-0.86 0.309-1.682 0.894-2.3 0.584-0.617 1.391-0.926 2.266-0.926v0zM354.316 559.522c-9.734-8.315-21.394-14.154-33.861-16.762-1.183-0.242-2.11-1.169-2.367-2.371-0.314-1.203 0.119-2.437 1.079-3.16 5.445-4.395 8.624-10.785 8.624-17.547 0-7.35-3.574-14.22-9.616-18.444-0.979-0.656-1.497-1.89-1.308-3.054l13.342-76.694c0.242-1.478 1.55-2.58 3.093-2.58h10.424c12.98 38.332 34.347 70.242 62.731 92.392-12.125 21.191-28.47 38.090-48.634 48.6-1.135 0.613-2.523 0.443-3.507-0.381v0zM305.307 560.107c39.859 0 72.28 33.14 72.28 73.943s-32.422 73.981-72.28 73.981c-23.233 0-43.858-11.298-57.1-28.783-0.375-0.271-0.775-0.48-1.097-0.822-0.603-0.722-0.999-1.511-1.221-2.371-8.105-11.949-12.848-26.412-12.848-42.005 0.005-40.804 32.409-73.943 72.266-73.943v0zM305.307 692.3c11.403 0 21.998-3.535 30.931-9.578-8.452-0.826-18.273-4.813-33.334-12.914-14.439-7.659-29.795-1.516-38.86 3.778 10.339 11.436 24.948 18.714 41.263 18.714v0zM256.674 663.28c7.422-4.466 18.701-9.721 31.444-9.721 6.68 0 13.707 1.411 20.73 5.188 25.723 13.736 31.51 13.394 41.487 8.79 0.432-0.171 0.875-0.204 1.34-0.309 6.386-9.446 10.167-20.849 10.167-33.177 0-32.114-25.348-58.25-56.535-58.25s-56.567 26.136-56.567 58.25c0 10.685 3.021 20.61 7.934 29.229v0zM477.173 459.953c0 8.689 4 16.933 11.028 22.497 1.235 0.997 1.767 2.575 1.426 4.090-0.381 1.545-1.55 2.709-3.113 3.023-15.902 3.363-30.878 10.747-43.326 21.428-1.254 1.064-3.023 1.273-4.499 0.518-55.728-29.092-90.054-95.072-91.756-176.47-0.033-1.098 0.394-2.129 1.149-2.918 0.775-0.793 1.806-1.202 2.885-1.202h119.112c1.958 0 3.639 1.406 3.968 3.33l17.171 98.055c0.309 1.545-0.375 3.093-1.648 3.987-7.778 5.425-12.397 14.253-12.397 23.661v0zM568.72 510.994c-12.429-10.648-27.424-18.070-43.341-21.467-1.548-0.313-2.732-1.511-3.074-3.026-0.361-1.511 0.17-3.088 1.387-4.086 7.046-5.565 11.081-13.775 11.081-22.464 0-9.374-4.638-18.164-12.33-23.523-1.288-0.927-1.924-2.475-1.649-4.020l17.053-98.16c0.309-1.924 1.991-3.33 3.934-3.33h119.194c1.084 0 2.129 0.414 2.87 1.202 0.755 0.789 1.169 1.82 1.149 2.918-1.7 81.364-36.014 147.378-91.774 176.47-1.458 0.755-3.245 0.546-4.499-0.513v0z" />
<glyph unicode="&#xe130;" glyph-name="c50" d="M610.143 39.567c-7.266 0-14.327 3.48-18.728 9.517l-0.102 0.205-152.28 242.849c-0.102 0.102-0.205 0.205-0.307 0.205l-310.7 22.719c-9.517 1.228-17.398 8.289-19.649 17.705-2.251 9.21 1.535 19.035 9.313 24.459l677.891 429.617c6.14 4.094 13.816 5.219 20.672 2.763 11.36-4.196 17.398-15.453 15.044-26.608l-198.537-705.011c-1.944-8.903-8.903-15.965-17.807-17.909-1.637-0.307-3.275-0.512-4.81-0.512z" />
<glyph unicode="&#xe131;" glyph-name="c51" horiz-adv-x="1552" d="M421.721 857.6l8.192 17.408 13.312-6.144 64 34.816 15.36-71.168 13.312-6.144-8.192-17.408 40.96-188.928-105.984 48.128-119.296-261.632c0 0-24.064 11.264-53.248 24.576s-53.76 24.576-53.76 24.576l120.832 261.12-105.472 48.64 169.984 92.16zM838.489 815.104l22.528-10.24 64 34.816 15.36-71.168 22.528-10.24-13.824-29.696 37.376-172.544-105.472 48.64-240.64-522.752c0 0-23.040 10.752-52.224 24.064s-52.736 24.064-52.736 24.064l239.616 522.752-105.472 48.128 155.136 84.48 13.824 29.696zM1164.121 538.112l17.408-8.192 67.072 41.984 12.288-78.336 19.456-9.216-11.776-26.112 38.4-177.664-105.472 48.64-140.288-305.664c0 0-23.552 10.752-52.736 24.064s-50.688 23.040-50.688 23.040l138.24 306.688-105.472 48.64 162.816 88.576 10.752 23.552z" />
<glyph unicode="&#xe132;" glyph-name="c52" d="M940.785 714.573l-411.83 237.77c-10.619 6.131-23.701 6.131-34.319 0l-411.831-237.77c-10.618-6.131-17.16-17.461-17.16-29.721v-475.54c0-12.261 6.541-23.59 17.16-29.721l411.83-237.77c10.619-6.131 23.701-6.131 34.319 0l411.83 237.77c10.619 6.131 17.16 17.461 17.16 29.721v475.54c0.001 12.26-6.541 23.59-17.159 29.721zM923.625 209.312l-411.83-237.77-411.83 237.77v475.541l411.83 237.77 411.83-237.77v-475.541zM231.021 581.469c-4.327-8.432-0.998-18.775 7.434-23.1l255.628-131.158-0.058-275.061c-0.002-9.477 7.679-17.161 17.156-17.163s17.161 7.679 17.163 17.156l0.057 273.825 240.929 135.049c8.267 4.634 11.212 15.092 6.578 23.359s-15.092 11.212-23.359 6.578l-239.392-135.060-259.035 133.008c-8.432 4.327-18.775 0.998-23.101-7.433z" />
<glyph unicode="&#xe133;" glyph-name="c54" horiz-adv-x="1069" d="M712.348 960h-356.174c-195.896 0-356.174-160.278-356.174-356.174v-124.661c0-195.896 160.278-356.174 356.174-356.174h191.443l124.661-111.304c71.235-66.783 129.113-40.070 124.661 57.878l-4.452 62.33c155.826 35.617 271.583 178.087 271.583 347.27v124.661c4.452 195.896-155.826 356.174-351.722 356.174zM734.609 425.739h-400.696c-13.357 0-22.261 8.904-22.261 22.261s8.904 22.261 22.261 22.261h400.696c13.357 0 22.261-8.904 22.261-22.261s-8.904-22.261-22.261-22.261zM734.609 603.826h-400.696c-13.357 0-22.261 8.904-22.261 22.261s8.904 22.261 22.261 22.261h400.696c13.357 0 22.261-8.904 22.261-22.261s-8.904-22.261-22.261-22.261z" />
<glyph unicode="&#xe134;" glyph-name="c55" horiz-adv-x="1098" d="M272.050 841.39h644.661c61.453 0 103.805-28.527 125.974-74.273 12.437-25.664 16.397-50.728 16.244-70.162l-1.379-9.402-105.651-373.079c-5.503-19.434-25.719-30.726-45.152-25.223s-30.726 25.719-25.223 45.152l105.651 373.079c0 0-1.381-9.527-1.382-9.608 0.069 8.846-2.259 23.584-8.928 37.345-10.331 21.317-27.717 33.028-60.153 33.028h-650.888l51.574-51.574c14.282-14.282 14.282-37.438 0-51.72s-37.438-14.282-51.72 0l-110.892 110.892c-14.282 14.282-14.282 37.438 0 51.72l112.066 112.066c14.282 14.282 37.438 14.282 51.72 0s14.282-37.438 0-51.72l-46.521-46.521zM206.506 778.213c0.406-0.383 0.822-0.758 1.245-1.122l-1.245-1.245v2.367zM825.093 74.927h-644.661c-61.453 0-103.805 28.527-125.974 74.273-12.437 25.664-16.397 50.728-16.244 70.162l1.379 9.402 105.651 373.079c5.503 19.434 25.719 30.726 45.152 25.223s30.726-25.719 25.223-45.152l-105.651-373.079c0 0 1.381 9.527 1.382 9.608-0.069-8.846 2.259-23.584 8.928-37.345 10.331-21.317 27.717-33.028 60.153-33.028h650.888l-51.574 51.574c-14.282 14.282-14.282 37.438 0 51.72s37.438 14.282 51.72 0l110.892-110.892c14.282-14.282 14.282-37.438 0-51.72l-112.066-112.066c-14.282-14.282-37.438-14.282-51.72 0s-14.282 37.438 0 51.72l46.521 46.521zM890.637 138.104c-0.406 0.383-0.822 0.758-1.245 1.122l1.245 1.245v-2.367zM786.286 527.238c20.198 0 36.571 16.374 36.571 36.571s-16.374 36.571-36.571 36.571h-369.778c-20.198 0-36.571-16.374-36.571-36.571s16.374-36.571 36.571-36.571h369.778zM680.635 315.937c20.198 0 36.571 16.374 36.571 36.571s-16.374 36.571-36.571 36.571h-369.778c-20.198 0-36.571-16.374-36.571-36.571s16.374-36.571 36.571-36.571h369.778z" />
<glyph unicode="&#xe135;" glyph-name="c56" horiz-adv-x="1195" d="M381.156 459.378l-329.956 204.8c-28.444 11.378-51.2 0-51.2-28.444v-398.222c0-34.133 22.756-68.267 51.2-85.333l335.644-204.8c28.444-17.067 51.2-5.689 51.2 28.444v398.222c-5.689 28.444-28.444 68.267-56.889 85.333zM847.644 686.933c28.444 17.067 28.444 39.822 0 56.889l-341.333 204.8c-22.756 17.067-68.267 17.067-96.711 0l-307.2-159.289c-28.444-17.067-28.444-39.822 0-56.889l324.267-204.8c28.444-17.067 68.267-17.067 96.711-5.689l324.267 164.978zM961.422 425.244c-5.689 0-11.378 0-17.067 0v170.667c0 34.133-22.756 45.511-51.2 28.444l-324.267-164.978c-28.444-17.067-51.2-51.2-51.2-85.333v-398.222c0-34.133 22.756-45.511 51.2-28.444l204.8 108.089c39.822-56.889 108.089-91.022 182.044-91.022 125.156 0 233.244 102.4 233.244 233.244s-102.4 227.556-227.556 227.556zM961.422 21.333c-96.711 0-176.356 79.644-176.356 176.356s79.644 176.356 176.356 176.356c96.711 0 176.356-79.644 176.356-176.356s-79.644-176.356-176.356-176.356zM1035.378 260.267l-96.711-96.711-51.2 56.889c-11.378 11.378-28.444 11.378-39.822 0s-11.378-28.444 0-39.822l73.956-73.956c11.378-11.378 28.444-11.378 39.822 0 0 0 0 0 0 0s0 0 0 0l113.778 113.778c11.378 11.378 11.378 28.444 0 39.822s-34.133 11.378-39.822 0z" />
<glyph unicode="&#xe136;" glyph-name="c57" d="M409.6-52.622c28.444-17.067 51.2-5.689 51.2 28.444v398.222c0 34.133-22.756 68.267-51.2 85.333l-329.956 204.8c-28.444 11.378-51.2 0-51.2-28.444v-398.222c0-34.133 22.756-68.267 51.2-85.333l329.956-204.8zM130.844 789.333c-28.444-17.067-28.444-39.822 0-56.889l324.267-204.8c28.444-17.067 68.267-17.067 96.711-5.689l324.267 164.978c28.444 17.067 28.444 39.822 0 56.889l-341.333 204.8c-22.756 17.067-68.267 17.067-96.711 0l-307.2-159.289zM551.822-24.178c0-34.133 22.756-45.511 51.2-28.444l324.267 164.978c28.444 17.067 51.2 51.2 51.2 85.333v398.222c0 34.133-22.756 45.511-51.2 28.444l-324.267-164.978c-28.444-17.067-51.2-51.2-51.2-85.333v-398.222z" />
<glyph unicode="&#xe137;" glyph-name="c58" d="M499.429 460.357c50.571 40.251 83.107 102.142 83.107 171.643 0 121-98.428 219.429-219.429 219.429s-219.429-98.428-219.429-219.429c0-70.25 33.322-132.714 84.822-172.928-133.822-54.393-228.5-185.644-228.5-338.75v-38.036c0-20.215 16.357-36.571 36.571-36.571h658.286c20.215 0 36.571 16.357 36.571 36.571v38.036c0 154.428-96.357 286.499-232 340.036zM216.821 632c0 80.678 65.607 146.286 146.286 146.286s146.286-65.607 146.286-146.286c0-79.643-64.037-144.357-143.285-146-0.143 0-0.251 0.037-0.393 0.037-1.285 0-2.571-0.179-3.856-0.179-80.071 0.678-145.037 65.893-145.037 146.143zM73.143 118.857v1.465c0 159.821 128.858 289.893 288.108 292.321 0.607 0 1.214-0.071 1.858-0.071 1.499 0 2.964 0.214 4.464 0.214 160.464-1 290.714-131.785 290.714-292.464l-585.143-1.465zM693.392 704h329.143v-73.143h-329.143v73.143zM693.392 521.143h329.143v-73.143h-329.143v73.143zM804.571 338.286h217.964v-73.143h-217.964v73.143z" />
<glyph unicode="&#xe138;" glyph-name="c59" d="M893.615 839.155c-19.081 0-31.801-12.72-31.801-31.801v-737.789c0-31.801-31.801-63.602-63.602-63.602h-559.702c-38.161 0-82.683 31.801-82.683 63.602v69.963c0 31.801 38.161 50.882 76.323 50.882h534.261c19.081 0 31.801 12.72 31.801 31.801v623.304c0 69.963-50.882 114.484-127.205 114.484h-432.497c-69.963 0-139.925-38.161-139.925-114.484v-782.311c0 0 0 0 0-6.36s0-6.36 0-12.72c6.36-57.242 63.602-101.764 120.845-108.124 0 0 6.36 0 6.36 0s0 0 6.36 0h566.062c69.963 0 127.205 57.242 127.205 120.845v750.509c0 12.72-12.72 31.801-31.801 31.801zM772.77 126.807h-521.54c-19.081 0-31.801-12.72-31.801-31.801s12.72-31.801 31.801-31.801h521.54c19.081 0 31.801 12.72 31.801 31.801s-12.72 31.801-31.801 31.801z" />
<glyph unicode="&#xe139;" glyph-name="c60" d="M91.527 72.179c0-68.219 54.576-122.793 122.793-122.793h656.138c68.219 0 122.793 54.576 122.793 122.793v751.643c0 68.219-54.576 122.793-122.793 122.793h-653.654c-68.219 0-122.793-54.576-122.793-122.793v-89.306h-32.249c-9.922 0-18.605-8.683-18.605-18.605v-54.576c0-9.922 8.683-18.605 18.605-18.605h32.249v-69.458h-32.249c-9.922 0-18.605-8.683-18.605-18.605v-54.576c0-9.922 8.683-18.605 18.605-18.605h32.249v-66.977h-32.249c-9.922 0-18.605-8.683-18.605-18.605v-57.055c0-9.922 8.683-18.605 18.605-18.605h32.249v-69.458h-32.249c-9.922 0-18.605-8.683-18.605-18.605v-54.576c0-9.922 8.683-18.605 18.605-18.605h32.249v-58.297l-2.48-28.528zM200.674 253.267h-43.413v69.458h43.413c9.922 0 18.605 8.683 18.605 18.605v54.576c0 9.922-8.683 18.605-18.605 18.605h-43.413v69.458h43.413c9.922 0 18.605 8.683 18.605 18.605v54.576c0 9.922-8.683 18.605-18.605 18.605h-43.413v69.458h43.413c9.922 0 18.605 8.683 18.605 18.605v54.576c0 9.922-8.683 18.605-18.605 18.605h-43.413v90.544c0 33.49 26.047 59.535 59.535 59.535h656.138c33.49 0 59.535-26.047 59.535-59.535v-751.643c0-33.49-26.047-59.535-59.535-59.535h-656.138c-33.49 0-59.535 26.047-59.535 59.535v86.823h43.413c9.922 0 18.605 8.683 18.605 18.605v50.853c0 12.403-8.683 21.085-18.605 21.085zM370.602 549.707h409.31c27.286 0 49.613 22.325 49.613 49.613v148.839c0 27.286-22.325 49.613-49.613 49.613h-409.31c-27.286 0-49.613-22.325-49.613-49.613v-147.599c0-28.528 22.325-50.853 49.613-50.853z" />
<glyph unicode="&#xe13a;" glyph-name="c61" d="M929.295 86.525h-865.391v642.213c0 15.452 12.484 27.936 27.936 27.936s27.936-12.484 27.936-27.936v-586.342h809.622c15.452 0 27.936-12.484 27.936-27.936-0.102-15.452-12.586-27.936-28.038-27.936v0zM845.59 198.268h-55.871c-30.801 0-55.871 24.968-55.871 55.871v334.921c0 30.801 24.968 55.871 55.871 55.871h55.871c30.801 0 55.871-24.968 55.871-55.871v-335.023c0-30.801-25.070-55.769-55.871-55.769v0zM566.439 198.268h-55.871c-30.801 0-55.871 24.968-55.871 55.871v502.432c0 30.801 24.968 55.871 55.871 55.871h55.871c30.801 0 55.871-24.968 55.871-55.871v-502.535c-0.102-30.801-25.070-55.769-55.871-55.769v0zM287.185 198.268h-55.871c-30.801 0-55.871 24.968-55.871 55.871v223.281c0 30.801 24.968 55.871 55.871 55.871h55.871c30.801 0 55.871-24.968 55.871-55.871v-223.383c0-30.801-24.968-55.769-55.871-55.769v0z" />
<glyph unicode="&#xe13b;" glyph-name="c62" d="M412.025 358.636c7.58 1.301 14.39 5.4 19.080 11.5l116.276 150.693 141.803-102.474c7.242-5.24 16.401-7.081 25.091-4.98 8.688 2.061 16.057 7.801 20.168 15.739l190.152 366.666c7.811 15.059 1.932 33.597-13.129 41.408-15.070 7.808-33.588 1.918-41.409-13.131l-173.752-335.046-137.074 99.055c-13.42 9.678-32.159 7.020-42.31-6.14l-127.154-164.814-177.183-30.7v293.39c0 15.159-12.28 27.44-27.439 27.44-15.15 0-27.43-12.281-27.43-27.44v-532.937c0-15.158 12.281-27.439 27.43-27.439h712.181v511.779l-117.096-225.83c-11.021-21.24-30.729-36.638-54.079-42.159-6.050-1.48-12.53-2.239-19.009-2.239-17.41 0-34.079 5.399-48.199 15.6l-101.255 73.195-85.757-111.154c-12.559-16.36-30.768-27.319-51.187-30.84l-208.161-36.039v52.341l199.441 34.555z" />
<glyph unicode="&#xe13c;" glyph-name="c63" d="M463.173 808.288c0-2.384 0-4.408 0-6.431 0.002-125.687 0.029-251.374-0.098-377.061-0.004-4.334 1.368-7.224 4.34-10.191 90.508-90.374 180.939-180.827 271.402-271.248 1.080-1.080 2.434-1.884 3.637-2.799-98.186-104.91-271.821-154.991-431.289-87.279-182.735 77.592-270.525 265.513-232.2 445.184 41.057 192.485 213.161 312.273 384.208 309.824zM528.834 481.716c0 130.789 0 261.2 0 391.606 184.956 8.044 392.537-150.882 392.443-391.606-130.649 0-261.297 0-392.443 0zM838.801 137.682c-93.057 92.472-185.893 184.725-279.4 277.645 132.064 0 263.186 0 394.308 0 2.638-72.446-24.166-188.37-114.907-277.645z" />
<glyph unicode="&#xe13d;" glyph-name="c64" d="M529.795 311.857v-223.254c0-3.931 1.5-7.862 4.5-10.861s6.93-4.5 10.861-4.5h112.914c3.931 0 7.862 1.5 10.861 4.5s4.5 6.93 4.5 10.861v297.517l-114.808-98.83-28.827 24.567zM47.283 88.603c0-3.931 1.499-7.862 4.499-10.861s6.93-4.5 10.861-4.5h112.899c3.931 0 7.862 1.5 10.86 4.5 2.999 2.999 4.5 6.93 4.5 10.861v227.748l-143.619-118.468v-109.28zM288.51 396.902v-308.298c0-3.931 1.499-7.862 4.5-10.861 2.999-2.999 6.93-4.5 10.861-4.5h112.929c3.931 0 7.862 1.5 10.86 4.5 2.999 2.999 4.5 6.93 4.5 10.861v306.372l-71.78 61.118-71.868-59.192zM771.051 88.603c0-3.931 1.5-7.862 4.5-10.861s6.93-4.5 10.861-4.5h112.961c3.931 0 7.862 1.5 10.861 4.5s4.5 6.93 4.5 10.861v505.277l-143.681-123.712v-381.565zM746.276 855.512c-2.017 0-3.928-1.199-4.739-3.18s-0.289-4.176 1.149-5.59l107.948-106.141-292.014-251.437-198.241 168.858-313.918-258.958v-111.86l313.918 258.945 198.241-168.83 352.731 303.65 89.19-87.717c1.428-1.403 3.608-1.893 5.568-1.071s3.141 2.721 3.141 4.722v253.49c0 1.311-0.5 2.62-1.5 3.621-0.999 0.999-2.31 1.499-3.62 1.499h-257.854z" />
<glyph unicode="&#xe13e;" glyph-name="c65" d="M849.505 790.758h27.699v-679.621h-729.294v27.256l701.129 1.416 0.465 650.95zM484.505 762.439c0 15.641 12.561 28.318 28.049 28.318h84.15c15.495 0 28.053-12.678 28.053-28.318v-566.35h-140.252v566.35zM652.808 592.531c0 15.641 12.555 28.321 28.048 28.321h84.15c15.495 0 28.053-12.681 28.053-28.321v-396.444h-140.25v396.444zM316.209 422.628c0 15.641 12.558 28.318 28.048 28.318h84.15c15.492 0 28.049-12.678 28.049-28.318v-226.54h-140.247v226.54zM175.956 281.040h84.15c15.492 0 28.049-12.678 28.049-28.321v-56.632h-140.247v56.632c0 15.642 12.558 28.321 28.047 28.321z" />
<glyph unicode="&#xe13f;" glyph-name="c66" horiz-adv-x="1025" d="M1004.493 29.496c-13.040-13.040-28.664-19.576-46.936-19.576h-664.64c-18.272 0-33.904 6.536-46.936 19.576-13 13.080-19.52 28.752-19.52 47.088v506.552c0 18.328 6.52 33.992 19.52 47.056 13.024 13.040 28.664 19.576 46.936 19.576h664.632c18.272 0 33.896-6.536 46.936-19.576 13-13.072 19.512-28.728 19.512-47.056v-506.544c0.008-18.344-6.504-34.016-19.504-47.096zM970.837 583.112c0 3.624-1.328 6.744-3.968 9.368-2.624 2.648-5.744 3.952-9.352 3.952h-664.6c-3.608 0-6.728-1.304-9.344-3.952-2.624-2.64-3.944-5.744-3.944-9.368v-506.56c0-3.584 1.32-6.712 3.944-9.336 2.648-2.656 5.736-3.976 9.344-3.976h664.6c3.608 0 6.728 1.32 9.352 3.976 2.64 2.624 3.968 5.752 3.968 9.336v506.56zM332.821 196.544l132.896 133.296 66.456-66.664 212.672 213.296 172.816-173.28v-186.64h-584.84v79.992zM412.565 383.176c-22.168 0-40.992 7.752-56.488 23.32-15.52 15.536-23.264 34.432-23.264 56.64 0 22.232 7.736 41.104 23.264 56.656 15.496 15.544 34.32 23.328 56.488 23.328 22.144 0 40.984-7.784 56.48-23.328 15.496-15.552 23.256-34.424 23.256-56.656 0-22.208-7.76-41.104-23.256-56.64-15.496-15.568-34.336-23.32-56.48-23.32zM852.685 701.264c0 3.616-1.32 6.736-3.968 9.368-2.624 2.656-5.744 3.952-9.344 3.952h-664.608c-3.608 0-6.72-1.296-9.344-3.952-2.624-2.632-3.944-5.744-3.944-9.368v-506.552c0-3.584 1.32-6.712 3.944-9.336 2.648-2.656 5.736-3.984 9.344-3.984h12.32v-23.84c0-10.424 2.072-20.36 5.752-29.464h-18.072c-18.272 0-33.904 6.536-46.928 19.576-13.008 13.080-19.52 28.752-19.52 47.088v506.536c0 18.328 6.512 33.992 19.52 47.056 13.024 13.032 28.664 19.576 46.928 19.576h664.632c18.272 0 33.896-6.536 46.936-19.576 13-13.072 19.512-28.728 19.512-47.056v-12.056h-53.168v12.032zM744.381 819.416c0 3.624-1.328 6.744-3.968 9.368-2.624 2.648-5.744 3.944-9.352 3.944h-664.6c-3.616 0-6.728-1.296-9.344-3.952-2.624-2.64-3.944-5.744-3.944-9.368v-506.552c0-3.592 1.32-6.72 3.944-9.344 2.648-2.648 5.736-3.976 9.344-3.976h12.32v-23.84c0-10.432 2.072-20.36 5.752-29.464h-18.072c-18.272 0-33.904 6.528-46.936 19.568-13 13.080-19.52 28.752-19.52 47.088v506.552c0 18.328 6.52 33.992 19.52 47.056 13.024 13.040 28.664 19.576 46.936 19.576h664.632c18.272 0 33.896-6.536 46.928-19.576 13-13.072 19.52-28.728 19.52-47.056v-12.056h-53.168v12.032z" />
<glyph unicode="&#xe140;" glyph-name="c67" d="M876.93-6.061h-246.524c-45.392 0-82.184 36.792-82.184 82.184v246.524c0 45.392 36.792 82.184 82.184 82.184h246.524c45.392 0 82.184-36.792 82.184-82.184v-246.524c0-45.392-36.792-82.184-82.184-82.184zM876.93 487.015h-246.524c-45.392 0-82.184 36.792-82.184 82.184v246.524c0 45.378 36.792 82.184 82.184 82.184h246.524c45.392 0 82.184-36.792 82.184-82.184v-246.538c0-45.392-36.792-82.17-82.184-82.17zM383.868-6.061h-246.538c-45.378 0-82.184 36.792-82.184 82.184v246.524c0 45.392 36.792 82.184 82.184 82.184h246.538c45.392 0 82.184-36.792 82.184-82.184v-246.524c-0.014-45.392-36.792-82.184-82.184-82.184zM383.868 487.015h-246.538c-45.378 0-82.184 36.792-82.184 82.184v246.524c0 45.378 36.792 82.184 82.184 82.184h246.538c45.392 0 82.184-36.792 82.184-82.184v-246.538c-0.014-45.392-36.792-82.17-82.184-82.17z" />
<glyph unicode="&#xe141;" glyph-name="c68" horiz-adv-x="1099" d="M752.56 193c3.9 31.9 2.6 64.3-0.6 94.9 15.8 6.8 25.8 17.8 29.4 33.4 23.6-0.4 46.4 1.1 70.6 8.8-20.3-56.1-53.8-98.2-96.6-134.8-2.8-2.3-2.8-2.3-2.8-2.3zM482.46 127.2c64.1 75.9 147 135.1 201.4 168.8 7.7-6.6 18.7-12.7 29-14.8 3.8-37.2 1.1-75.1-3-117.4-52.8-29.9-102.1-43.6-162.4-43.6-24.3 0-39.7 1.1-62.5 6.2zM280.86 258.7c5.6 37.7 19.8 100.8 60.2 170.4 4.4-1 12.3-2.3 17-2.3 9.8 0 19.2 1.2 27.3 6.8 67-49.5 156.1-89.2 271.8-103.4-70.8-34.2-158.6-99.2-222.1-189.5-64.1 23.7-111.3 59-151.1 114.4zM250.46 578.4c9.8-19.9 23.5-43 48-63.5-3.1-9.3-4.6-17.4-4.6-24.9 0-14.1 3.5-29.2 13.1-39-32.1-46.3-49-98.4-56.4-139.3-19.5 40.2-28.6 87.5-28.6 134.1s10 90.9 27.8 131c-0.1-0.1-1.2-1.8 0.7 1.6zM408.76 739.7c20.7-11.1 49.8-28.7 82.4-54.1-3.4-7.5-5.3-15.9-5.3-24.6 0-4.9 0.7-9.6 1.9-14.3-43.8-30.5-78.8-62.5-108.9-97-6.2 2.2-16.2 4.5-23.2 4.5-11.1 0-22.6-3-31.5-8.2-20.6 20-41.1 53.3-51.2 73.7 32.9 52.8 79.2 93.2 135.8 120zM684.76 740.4c-34.3-10.5-66.3-22.5-95.6-36-11 10.7-25.9 17.4-42.5 17.4-9.9 0-16.9-1.6-25.2-5.8-22.4 17.7-42.3 32-60.5 43.2 28.6 8.2 55.3 11.9 86.5 11.9 49.2 0 95.6-11.2 137.3-30.7zM413.76 524.6c27.7 31.4 58.6 58.6 98.5 86.6 10.2-7.7 20.7-11 34.5-11 9.9 0 17.2 1.7 25.5 5.9 46.4-53.2 93.5-120.8 119.5-209.1-11.9-5.1-20.4-14.7-24.3-26.3-107.9 12.4-188.9 51.6-251.8 96.9 3.9 7.3 5 13.6 5 22.4 0 11.7-2.8 22.2-8.5 31.5zM873.16 445.7c0-23.6-0.5-46.1-6.9-67.1-25.1-8-54.5-15-84.3-15-6.5 22.2-27.1 40.4-48.5 40.8-18.8 96-76.3 178.5-130.5 233.6 3.3 7.5 4.6 14.3 4.6 23 0 2.4-0.4 4.6-0.7 6.9 37.8 17.5 79.9 32.6 126.8 44.5 84.2-58.9 139.5-156.4 139.5-266.7zM547.56 823.5c-209.1 0-379.2-169.6-379.2-378s170.1-378 379.2-378c209.1 0 379.2 169.6 379.2 378s-170.1 378-379.2 378z" />
<glyph unicode="&#xe142;" glyph-name="c69" horiz-adv-x="1127" d="M989.541 19.333h-858.923c0 0-68.409-10.642-68.409 80.572v737.306c0 0 1.521 82.091 85.132 82.091h301.003c0 0 36.486 7.601 66.89-39.525 28.884-45.607 45.607-74.491 45.607-74.491s10.642-12.161 34.965-12.161c-21.283 0 387.655 0 387.655 0s68.409 7.601 68.409-68.409v-629.371c0 0 10.642-76.012-62.33-76.012zM925.692 597.016c0 18.243-15.202 33.445-33.445 33.445h-668.896c-19.763 0-34.965-15.203-34.965-33.445v-3.040c0-19.763 15.202-34.965 34.965-34.965h668.896c18.243 0 33.445 15.203 33.445 34.965v3.040z" />
<glyph unicode="&#xe143;" glyph-name="c70" d="M918.272 728h-476.608l0.64 56c0 27.456-28.608 56-56 56h-252.032c-29.184 0-70.272-32.448-70.272-63.552v-671.424c0-27.904 42.304-49.152 69.696-49.152h784.576c28.032 0 41.728 20.736 41.728 49.152v559.36c0 28.288-13.312 63.616-41.728 63.616zM889.344 120h-753.344v548.032l753.344-1.024v-547.008zM560 326.016v66.176c26.432 16.256 44.224 45.184 44.224 78.464 0 50.944-41.28 92.224-92.224 92.224-51.008 0-92.288-41.28-92.288-92.224 0-38.144 23.104-70.784 56.064-84.864v-59.968c-30.336-3.072-115.648-16.064-118.656-64.832 0 0 1.344-36.288 151.232-31.68 133.504 4.16 158.528 21.888 158.528 31.68 0 0-2.816 49.216-106.88 65.024z" />
<glyph unicode="&#xe144;" glyph-name="c71" d="M186.182 122.182h325.818v-46.545h-325.818v46.545zM837.818 122.182v-46.545h93.091v884.364h-698.182v-93.091h46.545v46.545h605.091v-791.273zM186.182 261.818h512v-46.545h-512v46.545zM93.091 810.589v-864.815c0-5.399 4.282-9.775 9.588-9.775h678.959c5.353 0 9.635 4.329 9.635 9.775v864.815c0 5.399-4.282 9.775-9.588 9.775h-679.005c-5.306 0-9.588-4.329-9.588-9.775zM139.636 773.818h605.091v-791.273h-605.091v791.273zM186.182 680.727h512v-46.545h-512v46.545zM186.182 541.091h512v-46.545h-512v46.545zM186.182 401.455h512v-46.545h-512v46.545z" />
<glyph unicode="&#xe145;" glyph-name="c72" horiz-adv-x="1027" d="M1026.1 69c0 0 0 583.9 0 641.3 0 77.9-70.9 70.6-70.9 70.6s-423.5-0.5-401.1 0c-24.3-0.5-36.3 12.7-36.3 12.7s-16.9 29-47.2 74.9c-31.8 48.1-68.6 40.2-68.6 40.2h-312.1c-86.5 0-87.5-83.2-87.5-83.2s0-692.3 0-752.2c0-92.8 70.1-81.3 70.1-81.3s836.3 0 889.1 0c75 0 64.5 77 64.5 77z" />
<glyph unicode="&#xe146;" glyph-name="c73" d="M448 890.496h-320c-70.656 0-128-57.344-128-128v-640c0-70.656 57.344-128 128-128h768c70.656 0 128 57.344 128 128v576h-384l-192 192zM1024 762.496c0 35.328-28.672 64-64 64h-320l64-64h320z" />
<glyph unicode="&#xe147;" glyph-name="c74" d="M86.81 115.2h-38.4v665.011c0 38.81 31.59 70.4 70.4 70.4h295.040c38.81 0 70.4-31.59 70.4-70.4v-53.811h-38.4v53.811c0 17.638-14.362 32-32 32h-295.040c-17.638 0-32-14.362-32-32v-665.011zM888.525 555.725c-10.598 0-19.2 8.602-19.2 19.2v95.437c0 17.638-14.362 32-32 32h-372.25c-10.598 0-19.2 8.602-19.2 19.2s8.602 19.2 19.2 19.2h372.275c38.81 0 70.4-31.59 70.4-70.4v-95.437c-0.026-10.624-8.602-19.2-19.226-19.2zM832.256 41.6h-715.29c-37.811 0-68.557 31.565-68.557 70.4 0 1.126 0.102 2.278 0.307 3.405l73.754 410.163c0.947 37.965 31.334 68.557 68.531 68.557h715.29c37.811 0 68.557-31.59 68.557-70.4 0-1.126-0.102-2.278-0.307-3.405l-73.779-410.163c-0.922-37.965-31.309-68.557-68.506-68.557zM86.861 110.464c0.742-16.947 13.978-30.464 30.131-30.464h715.264c16.64 0 30.157 14.362 30.157 32 0 1.126 0.102 2.278 0.307 3.405l73.702 409.856c-0.742 16.947-13.978 30.464-30.131 30.464h-715.29c-16.64 0-30.157-14.362-30.157-32 0-1.126-0.102-2.278-0.307-3.405l-73.677-409.856z" />
<glyph unicode="&#xe148;" glyph-name="c75" d="M810.559 677.906h-277.105c-103.409 0-91.215 76.972-197.024 76.972h-126.263c-45.189 0-61.581-32.318-61.581-76.972v-446.445c0-45.309 16.39-76.972 61.581-76.972h600.394c45.183 0 61.581 31.662 61.581 76.972v379.628c-0.005 36.474-31.795 67.777-61.581 66.817zM825.951 262.249c0-34.956-10.678-61.581-46.183-61.581h-523.415c-35.506 0-61.581 11.228-61.581 46.183v417.858c0 34.446 12.878 43.983 48.385 43.983h83.811c94.549 0 93.349-76.972 191.093-76.972h246.319c23.411 0.741 61.581-18.047 61.581-46.183v-323.29z" />
<glyph unicode="&#xe149;" glyph-name="c76" d="M957.296 66.331v779.759c-6.14 48.095-53.212 51.165-53.212 51.165s-792.106-0.537-792.157-0.542c-14.209-1.504-28.168-17.247-35.273-27.635-8.168-11.944-10.392-23.307-11.081-37.529-1.874-38.558-0.494-77.335-0.634-115.925-0.232-64.075-0.020-128.158-0.009-192.233 0.012-71.036-0.021-142.072 0.036-213.108 0.047-57.661 0.001-115.321 0.017-172.985 0.006-23.996-0.009-47.993-0.009-71.99 7.163-58.328 56.282-60.375 56.282-60.375h785.899c54.235 1.022 50.142 61.397 50.142 61.397zM236.559 323.839l75.213 133.541c11.653 21.935 31.407 38.345 48.553 55.277 11.674 11.529 23.348 23.057 35.022 34.586 13.726 13.555 27.451 27.108 41.176 40.663 14.587 14.405 29.174 28.81 43.762 43.216 15 14.812 29.998 29.626 44.999 44.438 14.444 14.264 28.888 28.528 43.333 42.792 12.299 12.146 24.596 24.289 36.894 36.435 9.177 9.061 18.354 18.124 27.53 27.186 6.664 6.581 13.079 14.395 20.515 20.097 6.901-5.147 12.879-12.28 19.066-18.259 15.296-14.782 30.593-29.562 45.89-44.343 8.662-8.371 18.041-16.384 26.109-25.329-1.301-1.070-2.448-2.424-3.644-3.61-6.011-5.957-12.016-11.919-18.014-17.888-8.921-8.878-17.834-17.765-26.746-26.652-11.796-11.762-23.592-23.524-35.39-35.284-13.401-13.358-26.806-26.713-40.21-40.070-13.782-13.731-27.564-27.462-41.344-41.195-13.353-13.307-26.706-26.616-40.058-39.925-12.331-12.29-24.662-24.58-36.991-36.869-10.101-10.066-20.202-20.132-30.304-30.197-13.074-13.028-24.287-27.769-37.24-40.908-11.937-12.108-26.148-19.529-40.529-27.562-0.15-0.084-133.541-74.701-133.541-74.701-39.91-17.907-24.049 24.56-24.049 24.56zM833.476 223.921h-642.636c-6.217 0-11.256 5.039-11.256 11.256s5.040 11.256 11.256 11.256h642.636c6.217 0 11.256-5.041 11.256-11.256 0-6.218-5.040-11.256-11.256-11.256z" />
<glyph unicode="&#xe14a;" glyph-name="c77" d="M854.297 14.113h-686.345c-58.42 0-104.009 49.903-104.009 108.293v515.825c0 58.405 45.589 103.995 104.009 103.995h148.887v78.989c0 29.195 23.641 60.671 52.851 60.671h256.254c29.183 0 52.876-31.476 52.876-60.671v-78.989h175.476c58.422 0 105.758-45.589 105.758-103.995v-515.825c0-58.391-47.335-108.293-105.757-108.293zM624.389 742.226v56.044c0 14.605-11.821 26.439-26.426 26.439h-200.1c-14.577 0-26.425-11.834-26.425-26.439v-56.044c15.695 0 237.28 0 252.951 0zM903.002 632.185c0 29.196-23.671 52.864-52.853 52.864h-676.927c-29.183 0-52.877-23.668-52.877-52.864v-114.055h782.657v114.055zM460.758 437.162c0-29.196 23.67-52.863 52.851-52.863 29.211 0 52.879 23.667 52.879 52.863 0 9.677-2.785 18.631-7.344 26.426h-91.068c-4.533-7.795-7.318-16.748-7.318-26.426zM903.655 463.588h-288.030c2.212-8.49 3.74-17.241 3.74-26.426 0-58.393-47.336-105.728-105.756-105.728-58.364 0-105.727 47.336-105.727 105.728 0 9.186 1.555 17.935 3.739 26.426h-291.277v-309.010c0-29.196 23.695-84.067 52.877-84.067h679.493c29.21 0 50.94 54.871 50.94 84.067v309.010z" />
<glyph unicode="&#xe14b;" glyph-name="c78" d="M351.623 807.47c15.976 0 29.647-5.535 41.015-16.594s17.053-24.581 17.053-40.552v-230.43c0-15.976-5.684-29.651-17.053-41.020-11.368-11.363-25.039-17.049-41.015-17.049h-230.43c-15.976 0-29.497 5.684-40.558 17.049-11.059 11.369-16.589 25.043-16.589 41.020v230.43c0 15.972 5.53 29.492 16.589 40.552 11.060 11.059 24.581 16.594 40.558 16.594h230.43zM351.623 346.613c15.976 0 29.647-5.53 41.015-16.595 11.368-11.059 17.053-24.575 17.053-40.551v-231.351c0-15.976-5.684-29.497-17.053-40.558-11.368-11.059-25.039-16.589-41.015-16.589h-230.43c-15.976 0-29.497 5.531-40.558 16.589-11.059 11.060-16.589 24.581-16.589 40.558v231.351c0 15.976 5.53 29.492 16.589 40.551 11.060 11.064 24.581 16.595 40.558 16.595h230.43zM813.402 346.613c15.976 0 29.492-5.53 40.552-16.595 11.065-11.059 16.594-24.575 16.594-40.551v-231.351c0-15.976-5.529-29.497-16.594-40.558-11.060-11.059-24.576-16.589-40.552-16.589h-230.429c-15.977 0-29.652 5.531-41.015 16.589-11.369 11.060-17.053 24.581-17.053 40.558v231.351c0 15.976 5.683 29.492 17.053 40.551 11.363 11.064 25.038 16.595 41.015 16.595h230.429zM941.52 706.081c12.29-12.29 18.432-26.733 18.432-43.322s-6.143-30.722-18.432-42.4l-171.439-171.439c-12.29-12.285-26.578-18.432-42.858-18.432-16.286 0-30.574 6.147-42.858 18.432l-171.44 171.439c-11.678 11.678-17.516 25.811-17.516 42.4s5.838 31.032 17.516 43.322l171.439 171.439c12.285 11.673 26.573 17.51 42.858 17.51 16.281 0 30.568-5.838 42.858-17.51l171.44-171.439z" />
<glyph unicode="&#xe14c;" glyph-name="c79" d="M782.462 620.288c-58.501 105.711-169.787 172.762-292.823 172.762-159.891 0-296.543-113.030-327.838-267.858l17.994 21.035c-79.221-29.366-132.873-105.101-132.873-190.974 0-112.453 91.147-203.6 203.6-203.6 11.845 0 71.083 0.618 240.626 2.46 0.096 0.001 0.096 0.001 0.192 0.002 169.915 1.846 228.565 2.458 239.862 2.458 132.555 0 240.009 107.454 240.009 240.009 0 121.41-90.646 223.294-210.125 238.161l21.375-14.454zM732.686 592.742l7.010-12.666 14.366-1.788c91.083-11.333 160.261-89.088 160.261-181.707 0-101.136-81.984-183.12-183.12-183.12-11.644 0-69.321-0.602-240.48-2.462-0.096-0.001-0.096-0.001-0.192-0.002-168.34-1.829-228.508-2.456-240.008-2.456-81.034 0-146.711 65.677-146.711 146.711 0 61.887 38.668 116.47 95.757 137.632l14.855 5.507 3.139 15.529c25.957 128.416 139.389 222.241 272.077 222.241 102.129 0 194.467-55.634 243.047-143.418v0zM553.002 393.376c0 100.697 83.928 185.341 185.341 185.341 15.709 0 28.444 12.735 28.444 28.444s-12.735 28.444-28.444 28.444c-132.941 0-242.23-110.222-242.23-242.23 0-15.709 12.735-28.444 28.444-28.444s28.444 12.735 28.444 28.444v0z" />
<glyph unicode="&#xe14d;" glyph-name="c80" horiz-adv-x="1025" d="M65.694 13.192l299.136 83.811 30.946 30.995-210.58 210.591-31.272-31.227-88.229-294.17zM220.286 373.68l210.617-210.615 411.609 411.671-210.58 210.593-411.645-411.649zM937.518 795.621l-84.731 84.737c-48.467 48.467-77.382 48.467-125.831 0l-59.913-59.966 210.586-210.56 59.917 59.934c48.443 48.473 48.443 77.381-0.029 125.854v0 0 0 0zM361.281 874.372c-48.466 48.471-77.409 48.471-125.875 0l-200.316-200.29-35.090 35.094 210.584 210.588c48.467 48.471 127.023 48.471 175.496 0l115.998-116.004-35.096-35.090-105.7 105.701zM122.823 656.512l70.219 70.214 35.119-35.095-70.219-70.209-4.167 4.167 39.236-39.291 105.281 105.333 35.124-35.119-105.288-105.276 10.722-10.722-35.112-35.096-168.671 168.664 35.119 35.094 52.637-52.664zM614.235 165.13l157.941-157.942 165.198 165.232c48.466 48.477 48.466 77.414 0 125.887l-110.789 110.785 35.090 35.1 121.087-121.091c48.466-48.467 48.466-127.019 0-175.497l-210.587-210.581-208.847 208.849 35.096 35.095 15.81-15.838zM754.634 235.311l-105.281-105.271-35.117 35.089 105.275 105.333 35.123-35.152zM772.177 182.701l35.096-35.119-87.733-87.733-35.091 35.117 87.728 87.735z" />
<glyph unicode="&#xe14e;" glyph-name="c81" d="M885.639 485.615c-46.311 29.687-101.334 46.969-160.429 46.969-16.464 0-32.601-1.395-48.334-3.964-29.96 60.662-92.242 102.479-164.376 102.479-101.328 0-183.454-82.265-183.454-183.628 0-72.176 41.744-134.493 102.307-164.495-2.555-15.691-3.938-31.775-3.938-48.186 0-59.226 17.36-114.368 47.171-160.744-43.96-14.476-76.751-53.308-82.862-100.586-48.124 12.304-93.375 31.646-134.591 56.988 6.728 15.24 10.763 31.947 10.763 49.765 0 67.569-54.792 122.415-122.365 122.415-17.734 0-34.426-3.977-49.714-10.772-25.316 41.32-44.7 86.551-56.932 134.725 60.115 7.774 106.648 58.696 106.648 120.89 0 62.436-46.839 113.299-107.073 120.89 12.292 48.293 31.98 93.464 57.359 134.724 15.289-6.854 31.98-10.778 49.714-10.778 67.573 0 122.365 54.845 122.365 122.48 0 17.568-3.914 34.34-10.642 49.522 41.337 25.342 86.346 44.987 134.469 57.231 7.766-60.169 58.584-106.753 120.774-106.753 62.187 0 113.002 46.584 120.777 106.753 48.121-12.244 93.126-31.889 134.463-57.231-6.783-15.182-10.636-31.954-10.636-49.522 0-67.635 54.792-122.48 122.297-122.48 17.799 0 34.494 3.923 49.777 10.778 25.443-41.26 45.011-86.431 57.361-134.724-47.371-5.965-86.328-38.738-100.899-82.746zM728.249 490.042c142.642 0 258.291-115.638 258.291-258.285s-115.649-258.297-258.291-258.297-258.291 115.649-258.291 258.297 115.649 258.285 258.291 258.285zM614.262 253.64v-29.877h89.695v-59.766h-89.695v-29.877h89.695v-59.766h59.729v59.766h89.648v29.877h-89.648v59.766h89.648v29.877h-89.648l119.537 119.519h-59.753l-89.647-89.643-89.648 89.643h-59.777l119.559-119.519h-89.695z" />
<glyph unicode="&#xe14f;" glyph-name="c82" d="M248.832 896.512q28.672 0 48.64-19.968t19.968-48.64v-116.736q0-28.672-19.968-48.64t-48.64-19.968h-116.736q-28.672 0-48.64 19.968t-19.968 48.64v116.736q0 28.672 19.968 48.64t48.64 19.968h116.736zM572.416 896.512q28.672 0 48.64-19.968t19.968-48.64v-116.736q0-28.672-19.968-48.64t-48.64-19.968h-118.784q-28.672 0-48.64 19.968t-19.968 48.64v116.736q0 28.672 19.968 48.64t48.64 19.968h118.784zM891.904 896.512q28.672 0 48.64-19.968t19.968-48.64v-116.736q0-28.672-19.968-48.64t-48.64-19.968h-118.784q-28.672 0-48.64 19.968t-19.968 48.64v116.736q0 28.672 19.968 48.64t48.64 19.968h118.784zM248.832 574.976q28.672 0 48.64-19.968t19.968-48.64v-116.736q0-28.672-19.968-48.64t-48.64-19.968h-116.736q-28.672 0-48.64 19.968t-19.968 48.64v116.736q0 28.672 19.968 48.64t48.64 19.968h116.736zM572.416 574.976q28.672 0 48.64-19.968t19.968-48.64v-116.736q0-28.672-19.968-48.64t-48.64-19.968h-118.784q-28.672 0-48.64 19.968t-19.968 48.64v116.736q0 28.672 19.968 48.64t48.64 19.968h118.784zM891.904 574.976q28.672 0 48.64-19.968t19.968-48.64v-116.736q0-28.672-19.968-48.64t-48.64-19.968h-118.784q-28.672 0-48.64 19.968t-19.968 48.64v116.736q0 28.672 19.968 48.64t48.64 19.968h118.784zM248.832 253.44q28.672 0 48.64-19.968t19.968-48.64v-116.736q0-28.672-19.968-48.64t-48.64-19.968h-116.736q-28.672 0-48.64 19.968t-19.968 48.64v116.736q0 28.672 19.968 48.64t48.64 19.968h116.736zM572.416 253.44q28.672 0 48.64-19.968t19.968-48.64v-116.736q0-28.672-19.968-48.64t-48.64-19.968h-118.784q-28.672 0-48.64 19.968t-19.968 48.64v116.736q0 28.672 19.968 48.64t48.64 19.968h118.784zM891.904 253.44q28.672 0 48.64-19.968t19.968-48.64v-116.736q0-28.672-19.968-48.64t-48.64-19.968h-118.784q-28.672 0-48.64 19.968t-19.968 48.64v116.736q0 28.672 19.968 48.64t48.64 19.968h118.784z" />
<glyph unicode="&#xe150;" glyph-name="c83" d="M810.667 746.667v-597.333h-597.333v597.333h597.333zM810.667 832h-597.333c-47.147 0-85.333-38.187-85.333-85.333v-597.333c0-47.147 38.187-85.333 85.333-85.333h597.333c47.147 0 85.333 38.187 85.333 85.333v597.333c0 47.147-38.187 85.333-85.333 85.333z" />
<glyph unicode="&#xe151;" glyph-name="c84" d="M958.797 111.871l-96.034 167.288c15.485 6.195 27.876 18.594 37.173 30.985v0 0c9.298 15.485 12.39 34.075 9.298 52.67l-12.399 58.861 40.274 43.371 3.103 3.091c12.39 15.493 18.585 34.080 18.585 52.666 0 18.596-6.195 37.18-18.585 49.572l-43.378 46.47 12.399 58.862c3.092 18.586 0 37.173-9.298 52.665-9.297 15.482-24.781 27.875-43.369 34.070l-58.862 18.596-18.593 58.864c-6.196 18.584-18.586 34.068-34.071 43.366v0c-15.495 9.289-34.078 12.39-52.665 9.289l-61.963-9.289-43.369 40.274-3.102 3.093c-15.484 12.392-30.975 18.589-49.562 18.589s-37.173-6.198-52.666-18.589l-43.368-43.368h-3.105l-61.953 12.39c-18.588 3.093-37.183 0-52.668-9.298-15.492-9.289-27.883-24.781-34.079-43.368l-18.587-58.864-58.862-18.584c-18.586-6.193-34.079-18.586-43.377-34.082-9.29-15.491-12.391-34.077-9.29-52.661l15.496-58.864-40.275-43.368v-3.103c-12.391-15.487-18.587-30.978-18.587-49.564 0-18.584 6.196-37.173 18.587-52.665v0l40.275-43.369-9.299-58.861c-3.103-18.588 0-37.185 9.299-52.67 9.287-15.493 21.678-24.781 37.171-34.078l-96.033-167.286c-6.204-12.401-3.103-24.793 9.289-30.988 0-6.191 3.102-6.191 9.299-6.191v0h130.111l65.058-114.626c6.197-12.39 21.68-15.493 30.979-9.297l9.298 9.297 99.129 173.483 18.594-15.485c15.483-12.39 34.072-18.597 49.565-18.597 18.586 0 37.173 6.205 52.667 18.597l18.585 15.485 99.137-173.483 9.287-9.297c12.402-6.196 24.794-3.093 30.988 9.297l65.055 114.626h130.114c3.092 0 9.289 0 12.39 3.098 9.29 6.196 12.392 21.681 6.196 30.979v0 0zM345.404 25.131v0l-52.665 89.844c-3.103 6.195-12.392 12.39-21.69 12.39h-105.333l80.551 142.504 18.587-6.195 18.585-58.862c6.196-18.586 18.594-34.079 34.081-43.377 15.493-9.289 34.078-12.39 52.665-6.195l49.572 12.398-74.353-142.508zM467.389 195.786l-0.443 0.443c-6.497 6.498-10.63 8.507-15.196 9.653-3.487 0.868-6.874 1.298-10.315 1.298-3.38 0-6.704-0.411-10.159-1.259l-89.979-23.691-28.659 90.765-0.25 0.998c-1.144 4.565-3.155 8.7-9.639 15.183-6.489 6.488-10.61 8.495-15.155 9.629l-1.013 0.254-89.264 28.197 18.875 89.65 0.152 0.612c1.808 7.246 1.429 12.985 0.732 15.076l-1.746 5.238v1.882c-2.336 4.583-6.104 10.237-9.778 15.748l-1.171 1.757-1.865 3.729-58.455 62.956 62.644 67.435c6.492 6.492 8.503 10.62 9.642 15.179 1.736 6.947 1.736 13.709-0.002 20.665l-0.153 0.616-18.875 89.664 90.277 28.44c4.54 1.132 8.66 3.14 15.167 9.641 6.469 6.48 8.484 10.612 9.626 15.172l0.316 1.259 28.593 85.796 89.82-18.934c3.514-0.88 6.889-1.308 10.319-1.308s6.807 0.428 10.323 1.308c4.573 1.141 8.697 3.151 15.187 9.639l3.532 3.534 66.988 62.212 67.447-62.654c6.484-6.486 10.616-8.495 15.179-9.639 3.501-0.873 6.883-1.301 10.322-1.301 3.433 0 6.819 0.428 10.339 1.308l0.616 0.152 89.657 18.872 28.196-89.256 0.254-1.006c3.153-12.608 12.194-21.649 24.801-24.802l1.003-0.251 90.767-28.662-23.682-89.976c-1.694-6.896-1.68-13.607 0.044-20.508 1.136-4.54 3.148-8.673 9.641-15.175l0.439-0.439 62.208-66.985-62.647-67.424c-4.939-4.944-7.285-8.52-8.629-11.957v-2.251l-1.012-4.059c-1.744-6.986-1.744-10.605 0-17.592l0.152-0.614 18.874-89.662-90.254-28.435c-4.556-1.138-8.686-3.151-15.192-9.646-6.468-6.48-8.48-10.61-9.621-15.171l-0.315-1.263-29.090-87.272-89.489 23.553c-0.292 0.071-0.584 0.143-0.877 0.208l-17.088-5.707c-6.16-2.058-12.776-5.731-14.722-7.406l-3.426-3.42-66.985-62.199-66.987 62.201zM794.605 127.365v0c-9.289 0-15.492-3.104-21.687-12.39l-52.665-89.844-80.541 139.406 46.47-9.297c18.586-3.093 37.174 0 52.667 6.195h3.091c15.494 9.298 27.885 21.688 34.082 40.274v3.102l18.584 58.862 18.586 6.195 80.551-142.504-99.138 0.001zM676.883 381.398v0c37.172 37.173 58.863 86.736 58.863 142.505 0 55.759-21.691 105.332-58.863 142.505s-86.745 61.963-142.504 61.963c-55.76 0-105.332-21.686-142.505-58.862-37.175-37.182-58.862-86.746-58.862-142.514 0-55.759 21.686-105.323 58.862-142.502v0c37.173-37.177 86.746-58.866 142.505-58.866 55.759-6.196 105.332 18.59 142.504 55.77v0 0zM645.906 412.377v0 0c-27.884-27.883-68.158-46.473-111.527-46.473-43.368 0-83.643 18.59-111.529 46.473v0c-27.885 27.882-43.366 68.157-43.366 108.423 0 43.377 18.586 83.652 46.47 111.527 27.875 27.885 68.15 46.473 111.519 46.473 43.375 0 83.651-18.588 111.524-46.473 27.885-27.875 46.472-68.15 46.472-111.527-3.093-40.266-21.68-80.541-49.564-108.423v0 0 0z" />
<glyph unicode="&#xe152;" glyph-name="c85" horiz-adv-x="1099" d="M893.96 688.6c0 8.5-6.5 14.6-17 14.6-19.6 0-420 0-590.4 0-11.2 0-12.2-3.9-12.2-13.9 0-135.6 0-446 0-475.9 0-21.6 5.7-27.2 21.1-27.2 40.4 0 552.8 0.1 583.1 0 12.4 0 15.3 9 15.3 20.6 0.1 134.8 0.1 452.5 0.1 481.8zM505.46 663.1c13.9 0.1 25.6-11.6 25.5-25.6-0.1-13.8-11.5-24.9-25.4-24.8-14 0.1-25.1 11.2-25.1 25.1 0 13.7 11.2 25.2 25 25.3zM427.76 663c13.9 0.1 25.2-11.1 25.3-25.1s-11-25.2-25-25.3c-14.1-0.1-25.1 10.8-25.3 24.9 0 14.1 11.2 25.5 25 25.5zM348.36 663c13.9 0.3 25.6-11.4 25.6-25.4-0.1-13.8-11.2-24.8-25.1-24.9s-25.1 11-25.2 24.8c-0.2 13.7 11 25.2 24.7 25.5zM861.66 237.2c0-13.7-5.3-18.9-19.1-18.9-172.1 0-350.1 0-522.2 0-14.5 0-13.6 5-13.6 19.2 0 108.5 0 221.9 0 330.3 0 8.9 1.6 9.9 9.8 9.9 89.1 0.1 178.6 0 267.6 0 89.9 0 180.4-0.1 270.3 0 5.6 0 7.5-1.1 7.5-7.3-0.4-109.6-0.3-223.5-0.3-333.2zM734.26 319.8c6.1 0 7.4-0.9 7.4-3.7 0-4.9-0.1-21.2-0.1-24.3 0-3.3-1.2-4.1-4.2-4.1-8.8 0-143.8 0-153.1 0-4.3 0-4.8 1.8-4.8 5 0 3-0.1 18.4 0 22.7 0 3.5 0.7 4.4 6.4 4.4 19.3 0.1 129.7 0.1 148.4 0zM520.36 417.6c-24.4 18.8-84.1 62.6-97.6 73-3.3 2.5-3.8 4.6-2.9 6.9 3.9 6.2 9.5 14.3 12.3 17.7 3.4 4.3 5.6 3.6 10.6-0.3 6.2-4.6 100.4-74.7 111.2-83.5 10.4-8.8 8.8-19.5-3.2-30.2-14.9-11.9-97.2-75-108.1-83.5-4.7-3.3-6.5-5.2-11.5 0.1-2.4 3.2-9.4 11.4-11.6 14.3-3.8 5-1.2 7.4 3.6 11.8 13.6 11.1 71.4 53.1 97.2 73.7z" />
<glyph unicode="&#xe153;" glyph-name="c86" d="M856.192 844.672h-688.384c-64.853 0-117.632-52.779-117.632-117.675v-575.36c0-64.896 52.779-117.632 117.632-117.632h688.384c64.853 0 117.632 52.779 117.632 117.632v575.36c0 64.896-52.779 117.675-117.632 117.675zM633.728 316.032h-243.499v185.557h243.541v-185.557zM681.984 501.589h243.584v-185.557h-243.584v185.557zM633.728 267.776v-185.515h-243.499v185.515h243.499zM98.432 501.589h243.541v-185.557h-243.541v185.557zM390.229 549.845v185.515h243.541v-185.515h-243.541zM341.931 735.36v-185.515h-243.499v185.515h243.499zM98.432 151.637v116.139h243.541v-185.515h-174.165c-38.272 0-69.376 31.104-69.376 69.376zM856.192 82.261h-174.208v185.515h243.584v-116.139c0-38.272-31.104-69.376-69.376-69.376zM925.568 549.845h-243.584v185.515h243.584v-185.515z" />
<glyph unicode="&#xe154;" glyph-name="c87" d="M300.293 896.184l455.946-446.71-455.946-446.71-35.441 34.693 420.654 412.017-420.654 412.017 35.441 34.693z" />
<glyph unicode="&#xe155;" glyph-name="c88" d="M273.239 448.138l431.299 431.299 34.417-34.422-431.299-431.293-34.417 34.417zM704.538 17.731l-431.299 431.299 34.417 34.422 431.304-431.299-34.422-34.422z" />
<glyph unicode="&#xe156;" glyph-name="c89" d="M506.547 215.721l-431.299 431.304 34.422 34.417 431.293-431.299-34.417-34.422zM936.95 647.025l-431.299-431.304-34.422 34.422 431.299 431.304 34.422-34.422z" />
<glyph unicode="&#xe157;" glyph-name="c90" d="M505.651 681.441l431.299-431.304-34.422-34.417-431.288 431.304 34.412 34.417zM75.249 250.138l431.299 431.304 34.422-34.422-431.299-431.304-34.422 34.422z" />
<glyph unicode="&#xe158;" glyph-name="c91" d="M976.568 870.579c0 23.209-18.821 42.025-42.030 42.025h-812.969c-23.209 0-42.025-18.816-42.025-42.025v-812.974c0-23.209 18.816-42.025 42.025-42.025h812.974c23.209 0 42.030 18.816 42.030 42.025v812.974zM927.416 83.86c0-7.736-6.277-14.008-14.008-14.008h-766.612c-7.736 0-14.008 6.277-14.008 14.008v761.487c0 7.736 6.272 14.008 14.008 14.008h766.612c7.731 0 14.003-6.272 14.003-14.008v-761.487h0.005zM745.677 719.636c-2.78 2.78-6.62 4.495-10.86 4.495-4.244 0-8.084-1.715-10.86-4.5l-196.147-196.157-196.147 196.157c-2.775 2.78-6.615 4.5-10.86 4.5-4.239 0-8.079-1.72-10.86-4.495l-37.427-37.427c-2.78-2.78-4.5-6.62-4.5-10.86 0-4.244 1.72-8.084 4.5-10.865l196.157-196.152-196.157-196.137c-2.78-2.78-4.5-6.62-4.5-10.86 0-4.244 1.72-8.084 4.495-10.865l37.432-37.432c2.78-2.78 6.62-4.5 10.865-4.5 4.239 0 8.079 1.72 10.86 4.5l196.147 196.152 196.142-196.152c2.78-2.78 6.62-4.5 10.865-4.5 4.239 0 8.084 1.72 10.86 4.5l37.432 37.437c2.78 2.775 4.5 6.615 4.5 10.86 0 4.239-1.72 8.084-4.5 10.86l-196.147 196.137 196.152 196.157c2.78 2.78 4.5 6.62 4.495 10.86 0 4.244-1.715 8.084-4.5 10.865l-37.437 37.422z" />
</font>
</defs>
</svg>
